<mxfile host="app.diagrams.net" modified="2021-02-23T07:42:49.554Z" agent="5.0 (Windows NT 10.0; Win64; x64) AppleWebKit/537.36 (KHTML, like Gecko) Chrome/88.0.4324.182 Safari/537.36" etag="6xXbgLWJOAfjHLbbCPAr" version="14.4.2" type="github" pages="8">
  <diagram id="C5RBs43oDa-KdzZeNtuy" name="采集控制流程">
    <mxGraphModel dx="1025" dy="608" grid="1" gridSize="10" guides="1" tooltips="1" connect="1" arrows="1" fold="1" page="1" pageScale="1" pageWidth="827" pageHeight="1169" math="0" shadow="0">
      <root>
        <mxCell id="WIyWlLk6GJQsqaUBKTNV-0" />
        <mxCell id="WIyWlLk6GJQsqaUBKTNV-1" parent="WIyWlLk6GJQsqaUBKTNV-0" />
        <mxCell id="UZ3TIBLTQS_dJuXPeL5W-3" style="edgeStyle=orthogonalEdgeStyle;rounded=0;orthogonalLoop=1;jettySize=auto;html=1;exitX=0.5;exitY=1;exitDx=0;exitDy=0;exitPerimeter=0;entryX=0.5;entryY=0;entryDx=0;entryDy=0;" parent="WIyWlLk6GJQsqaUBKTNV-1" source="UZ3TIBLTQS_dJuXPeL5W-0" target="UZ3TIBLTQS_dJuXPeL5W-1" edge="1">
          <mxGeometry relative="1" as="geometry" />
        </mxCell>
        <mxCell id="UZ3TIBLTQS_dJuXPeL5W-0" value="开始" style="strokeWidth=2;html=1;shape=mxgraph.flowchart.start_2;whiteSpace=wrap;" parent="WIyWlLk6GJQsqaUBKTNV-1" vertex="1">
          <mxGeometry x="315" y="30" width="70" height="40" as="geometry" />
        </mxCell>
        <mxCell id="UZ3TIBLTQS_dJuXPeL5W-6" style="edgeStyle=orthogonalEdgeStyle;rounded=0;orthogonalLoop=1;jettySize=auto;html=1;exitX=0.5;exitY=1;exitDx=0;exitDy=0;entryX=0.5;entryY=0;entryDx=0;entryDy=0;" parent="WIyWlLk6GJQsqaUBKTNV-1" source="UZ3TIBLTQS_dJuXPeL5W-1" target="UZ3TIBLTQS_dJuXPeL5W-4" edge="1">
          <mxGeometry relative="1" as="geometry" />
        </mxCell>
        <mxCell id="UZ3TIBLTQS_dJuXPeL5W-1" value="从本地文件初始化TakerManager，PageManager，TaskGroup" style="rounded=1;whiteSpace=wrap;html=1;absoluteArcSize=1;arcSize=14;strokeWidth=2;" parent="WIyWlLk6GJQsqaUBKTNV-1" vertex="1">
          <mxGeometry x="300" y="100" width="100" height="100" as="geometry" />
        </mxCell>
        <mxCell id="L6I1wIQOH2HrOUwNeWIl-1" style="edgeStyle=orthogonalEdgeStyle;rounded=0;orthogonalLoop=1;jettySize=auto;html=1;exitX=0.5;exitY=1;exitDx=0;exitDy=0;entryX=0.5;entryY=0;entryDx=0;entryDy=0;" parent="WIyWlLk6GJQsqaUBKTNV-1" source="UZ3TIBLTQS_dJuXPeL5W-4" target="L6I1wIQOH2HrOUwNeWIl-0" edge="1">
          <mxGeometry relative="1" as="geometry" />
        </mxCell>
        <mxCell id="UZ3TIBLTQS_dJuXPeL5W-4" value="连接到外部服务" style="rounded=1;whiteSpace=wrap;html=1;absoluteArcSize=1;arcSize=14;strokeWidth=2;" parent="WIyWlLk6GJQsqaUBKTNV-1" vertex="1">
          <mxGeometry x="300" y="240" width="100" height="50" as="geometry" />
        </mxCell>
        <mxCell id="n7_p6rtyUHWvbLUiibL5-5" style="edgeStyle=orthogonalEdgeStyle;rounded=0;orthogonalLoop=1;jettySize=auto;html=1;exitX=0.5;exitY=1;exitDx=0;exitDy=0;entryX=0.5;entryY=0;entryDx=0;entryDy=0;" parent="WIyWlLk6GJQsqaUBKTNV-1" source="UZ3TIBLTQS_dJuXPeL5W-5" target="n7_p6rtyUHWvbLUiibL5-4" edge="1">
          <mxGeometry relative="1" as="geometry" />
        </mxCell>
        <mxCell id="UZ3TIBLTQS_dJuXPeL5W-5" value="启动WorkGroup&lt;br&gt;分配任务工作线程" style="rounded=1;whiteSpace=wrap;html=1;absoluteArcSize=1;arcSize=14;strokeWidth=2;" parent="WIyWlLk6GJQsqaUBKTNV-1" vertex="1">
          <mxGeometry x="300" y="420" width="100" height="50" as="geometry" />
        </mxCell>
        <mxCell id="vbHlAzTgmcP7SMVzHsdD-3" style="edgeStyle=orthogonalEdgeStyle;rounded=0;orthogonalLoop=1;jettySize=auto;html=1;exitX=0.5;exitY=1;exitDx=0;exitDy=0;entryX=0.5;entryY=0;entryDx=0;entryDy=0;" parent="WIyWlLk6GJQsqaUBKTNV-1" source="UZ3TIBLTQS_dJuXPeL5W-8" target="vbHlAzTgmcP7SMVzHsdD-0" edge="1">
          <mxGeometry relative="1" as="geometry" />
        </mxCell>
        <mxCell id="UZ3TIBLTQS_dJuXPeL5W-8" value="根据PageID通过PageManager获得Page任务" style="rounded=1;whiteSpace=wrap;html=1;absoluteArcSize=1;arcSize=14;strokeWidth=2;" parent="WIyWlLk6GJQsqaUBKTNV-1" vertex="1">
          <mxGeometry x="300" y="600" width="100" height="70" as="geometry" />
        </mxCell>
        <mxCell id="Z1CmX_C6ZEr_HyNng9Zh-5" style="edgeStyle=orthogonalEdgeStyle;rounded=0;orthogonalLoop=1;jettySize=auto;html=1;exitX=0;exitY=0.5;exitDx=0;exitDy=0;entryX=0;entryY=0.5;entryDx=0;entryDy=0;" parent="WIyWlLk6GJQsqaUBKTNV-1" source="UZ3TIBLTQS_dJuXPeL5W-10" target="UZ3TIBLTQS_dJuXPeL5W-8" edge="1">
          <mxGeometry relative="1" as="geometry">
            <Array as="points">
              <mxPoint x="40" y="230" />
              <mxPoint x="40" y="635" />
            </Array>
          </mxGeometry>
        </mxCell>
        <mxCell id="sytHTwuRZ3MuT53PnnYa-7" style="edgeStyle=orthogonalEdgeStyle;rounded=0;orthogonalLoop=1;jettySize=auto;html=1;exitX=1;exitY=0.5;exitDx=0;exitDy=0;entryX=0;entryY=0.5;entryDx=0;entryDy=0;" parent="WIyWlLk6GJQsqaUBKTNV-1" source="UZ3TIBLTQS_dJuXPeL5W-10" target="UZ3TIBLTQS_dJuXPeL5W-1" edge="1">
          <mxGeometry relative="1" as="geometry" />
        </mxCell>
        <mxCell id="UZ3TIBLTQS_dJuXPeL5W-10" value="PagesData" style="shape=parallelogram;html=1;strokeWidth=2;perimeter=parallelogramPerimeter;whiteSpace=wrap;rounded=1;arcSize=12;size=0.23;" parent="WIyWlLk6GJQsqaUBKTNV-1" vertex="1">
          <mxGeometry x="80" y="200" width="100" height="60" as="geometry" />
        </mxCell>
        <mxCell id="UZ3TIBLTQS_dJuXPeL5W-18" style="edgeStyle=orthogonalEdgeStyle;rounded=0;orthogonalLoop=1;jettySize=auto;html=1;exitX=0.5;exitY=1;exitDx=0;exitDy=0;entryX=0.5;entryY=0;entryDx=0;entryDy=0;entryPerimeter=0;" parent="WIyWlLk6GJQsqaUBKTNV-1" source="UZ3TIBLTQS_dJuXPeL5W-15" target="UZ3TIBLTQS_dJuXPeL5W-17" edge="1">
          <mxGeometry relative="1" as="geometry" />
        </mxCell>
        <mxCell id="UZ3TIBLTQS_dJuXPeL5W-15" value="尝试通过TakerManager根据当前TaskGroup获取可用Taker" style="rounded=1;whiteSpace=wrap;html=1;absoluteArcSize=1;arcSize=14;strokeWidth=2;" parent="WIyWlLk6GJQsqaUBKTNV-1" vertex="1">
          <mxGeometry x="300" y="860" width="100" height="70" as="geometry" />
        </mxCell>
        <mxCell id="UZ3TIBLTQS_dJuXPeL5W-19" style="edgeStyle=orthogonalEdgeStyle;rounded=0;orthogonalLoop=1;jettySize=auto;html=1;exitX=1;exitY=0.5;exitDx=0;exitDy=0;exitPerimeter=0;entryX=1;entryY=0.5;entryDx=0;entryDy=0;" parent="WIyWlLk6GJQsqaUBKTNV-1" source="UZ3TIBLTQS_dJuXPeL5W-17" target="UZ3TIBLTQS_dJuXPeL5W-15" edge="1">
          <mxGeometry relative="1" as="geometry">
            <Array as="points">
              <mxPoint x="470" y="1005" />
              <mxPoint x="470" y="895" />
            </Array>
          </mxGeometry>
        </mxCell>
        <mxCell id="57HcuIjS99NK63nToQ9V-0" value="NO" style="edgeLabel;html=1;align=center;verticalAlign=middle;resizable=0;points=[];fontSize=12;" parent="UZ3TIBLTQS_dJuXPeL5W-19" vertex="1" connectable="0">
          <mxGeometry x="-0.8" y="1" relative="1" as="geometry">
            <mxPoint as="offset" />
          </mxGeometry>
        </mxCell>
        <mxCell id="57HcuIjS99NK63nToQ9V-7" style="edgeStyle=orthogonalEdgeStyle;rounded=0;orthogonalLoop=1;jettySize=auto;html=1;exitX=0.5;exitY=1;exitDx=0;exitDy=0;exitPerimeter=0;fontSize=12;" parent="WIyWlLk6GJQsqaUBKTNV-1" source="UZ3TIBLTQS_dJuXPeL5W-17" target="UZ3TIBLTQS_dJuXPeL5W-22" edge="1">
          <mxGeometry relative="1" as="geometry" />
        </mxCell>
        <mxCell id="57HcuIjS99NK63nToQ9V-10" value="YES" style="edgeLabel;html=1;align=center;verticalAlign=middle;resizable=0;points=[];fontSize=12;" parent="57HcuIjS99NK63nToQ9V-7" vertex="1" connectable="0">
          <mxGeometry x="-0.3538" relative="1" as="geometry">
            <mxPoint as="offset" />
          </mxGeometry>
        </mxCell>
        <mxCell id="UZ3TIBLTQS_dJuXPeL5W-17" value="是否拿到" style="strokeWidth=2;html=1;shape=mxgraph.flowchart.decision;whiteSpace=wrap;" parent="WIyWlLk6GJQsqaUBKTNV-1" vertex="1">
          <mxGeometry x="300" y="970" width="100" height="70" as="geometry" />
        </mxCell>
        <mxCell id="n7_p6rtyUHWvbLUiibL5-3" style="edgeStyle=orthogonalEdgeStyle;rounded=0;orthogonalLoop=1;jettySize=auto;html=1;exitX=0.5;exitY=1;exitDx=0;exitDy=0;entryX=1;entryY=0.5;entryDx=0;entryDy=0;" parent="WIyWlLk6GJQsqaUBKTNV-1" source="UZ3TIBLTQS_dJuXPeL5W-22" target="n7_p6rtyUHWvbLUiibL5-4" edge="1">
          <mxGeometry relative="1" as="geometry">
            <mxPoint x="350" y="1070" as="targetPoint" />
            <Array as="points">
              <mxPoint x="350" y="1210" />
              <mxPoint x="770" y="1210" />
              <mxPoint x="770" y="545" />
            </Array>
          </mxGeometry>
        </mxCell>
        <mxCell id="UZ3TIBLTQS_dJuXPeL5W-22" value="将Page任务分配给拿到的Taker执行数据采集活动" style="rounded=1;whiteSpace=wrap;html=1;absoluteArcSize=1;arcSize=14;strokeWidth=2;" parent="WIyWlLk6GJQsqaUBKTNV-1" vertex="1">
          <mxGeometry x="300" y="1090" width="100" height="70" as="geometry" />
        </mxCell>
        <mxCell id="Z1CmX_C6ZEr_HyNng9Zh-2" style="edgeStyle=orthogonalEdgeStyle;rounded=0;orthogonalLoop=1;jettySize=auto;html=1;exitX=1;exitY=0.5;exitDx=0;exitDy=0;entryX=0;entryY=0.5;entryDx=0;entryDy=0;" parent="WIyWlLk6GJQsqaUBKTNV-1" source="n7_p6rtyUHWvbLUiibL5-0" target="UZ3TIBLTQS_dJuXPeL5W-1" edge="1">
          <mxGeometry relative="1" as="geometry">
            <mxPoint x="280" y="150" as="targetPoint" />
          </mxGeometry>
        </mxCell>
        <mxCell id="Z1CmX_C6ZEr_HyNng9Zh-6" style="edgeStyle=orthogonalEdgeStyle;rounded=0;orthogonalLoop=1;jettySize=auto;html=1;exitX=0;exitY=0.5;exitDx=0;exitDy=0;entryX=0;entryY=0.5;entryDx=0;entryDy=0;" parent="WIyWlLk6GJQsqaUBKTNV-1" source="n7_p6rtyUHWvbLUiibL5-0" target="UZ3TIBLTQS_dJuXPeL5W-15" edge="1">
          <mxGeometry relative="1" as="geometry">
            <Array as="points">
              <mxPoint x="20" y="150" />
              <mxPoint x="20" y="895" />
            </Array>
          </mxGeometry>
        </mxCell>
        <mxCell id="n7_p6rtyUHWvbLUiibL5-0" value="TakersData" style="shape=parallelogram;html=1;strokeWidth=2;perimeter=parallelogramPerimeter;whiteSpace=wrap;rounded=1;arcSize=12;size=0.23;" parent="WIyWlLk6GJQsqaUBKTNV-1" vertex="1">
          <mxGeometry x="80" y="120" width="100" height="60" as="geometry" />
        </mxCell>
        <mxCell id="vbHlAzTgmcP7SMVzHsdD-2" style="edgeStyle=orthogonalEdgeStyle;rounded=0;orthogonalLoop=1;jettySize=auto;html=1;exitX=0.5;exitY=1;exitDx=0;exitDy=0;entryX=0.5;entryY=0;entryDx=0;entryDy=0;" parent="WIyWlLk6GJQsqaUBKTNV-1" source="n7_p6rtyUHWvbLUiibL5-4" target="UZ3TIBLTQS_dJuXPeL5W-8" edge="1">
          <mxGeometry relative="1" as="geometry" />
        </mxCell>
        <mxCell id="n7_p6rtyUHWvbLUiibL5-4" value="&lt;span&gt;循环分配组里任务&lt;/span&gt;" style="rounded=1;whiteSpace=wrap;html=1;absoluteArcSize=1;arcSize=14;strokeWidth=2;" parent="WIyWlLk6GJQsqaUBKTNV-1" vertex="1">
          <mxGeometry x="300" y="520" width="100" height="50" as="geometry" />
        </mxCell>
        <mxCell id="sytHTwuRZ3MuT53PnnYa-5" style="edgeStyle=orthogonalEdgeStyle;rounded=0;orthogonalLoop=1;jettySize=auto;html=1;exitX=1;exitY=0.5;exitDx=0;exitDy=0;entryX=0;entryY=0.5;entryDx=0;entryDy=0;" parent="WIyWlLk6GJQsqaUBKTNV-1" source="Z1CmX_C6ZEr_HyNng9Zh-0" target="UZ3TIBLTQS_dJuXPeL5W-1" edge="1">
          <mxGeometry relative="1" as="geometry" />
        </mxCell>
        <mxCell id="Z1CmX_C6ZEr_HyNng9Zh-0" value="TaskGroups&lt;br&gt;Data" style="shape=parallelogram;html=1;strokeWidth=2;perimeter=parallelogramPerimeter;whiteSpace=wrap;rounded=1;arcSize=12;size=0.23;" parent="WIyWlLk6GJQsqaUBKTNV-1" vertex="1">
          <mxGeometry x="80" y="40" width="100" height="60" as="geometry" />
        </mxCell>
        <mxCell id="vbHlAzTgmcP7SMVzHsdD-5" style="edgeStyle=orthogonalEdgeStyle;rounded=0;orthogonalLoop=1;jettySize=auto;html=1;exitX=1;exitY=0.5;exitDx=0;exitDy=0;entryX=0;entryY=0.5;entryDx=0;entryDy=0;" parent="WIyWlLk6GJQsqaUBKTNV-1" source="vbHlAzTgmcP7SMVzHsdD-0" target="vbHlAzTgmcP7SMVzHsdD-4" edge="1">
          <mxGeometry relative="1" as="geometry">
            <Array as="points">
              <mxPoint x="440" y="750" />
              <mxPoint x="440" y="750" />
            </Array>
          </mxGeometry>
        </mxCell>
        <mxCell id="vbHlAzTgmcP7SMVzHsdD-12" value="YES" style="edgeLabel;html=1;align=center;verticalAlign=middle;resizable=0;points=[];" parent="vbHlAzTgmcP7SMVzHsdD-5" vertex="1" connectable="0">
          <mxGeometry x="-0.7062" y="1" relative="1" as="geometry">
            <mxPoint x="18" y="1" as="offset" />
          </mxGeometry>
        </mxCell>
        <mxCell id="vbHlAzTgmcP7SMVzHsdD-11" style="edgeStyle=orthogonalEdgeStyle;rounded=0;orthogonalLoop=1;jettySize=auto;html=1;exitX=0.5;exitY=1;exitDx=0;exitDy=0;" parent="WIyWlLk6GJQsqaUBKTNV-1" source="vbHlAzTgmcP7SMVzHsdD-0" target="UZ3TIBLTQS_dJuXPeL5W-15" edge="1">
          <mxGeometry relative="1" as="geometry">
            <Array as="points">
              <mxPoint x="350" y="820" />
              <mxPoint x="350" y="820" />
            </Array>
          </mxGeometry>
        </mxCell>
        <mxCell id="vbHlAzTgmcP7SMVzHsdD-13" value="NO" style="edgeLabel;html=1;align=center;verticalAlign=middle;resizable=0;points=[];" parent="vbHlAzTgmcP7SMVzHsdD-11" vertex="1" connectable="0">
          <mxGeometry x="-0.009" y="2" relative="1" as="geometry">
            <mxPoint as="offset" />
          </mxGeometry>
        </mxCell>
        <mxCell id="vbHlAzTgmcP7SMVzHsdD-0" value="是否异步模式获取数据" style="rhombus;whiteSpace=wrap;html=1;" parent="WIyWlLk6GJQsqaUBKTNV-1" vertex="1">
          <mxGeometry x="310" y="710" width="80" height="80" as="geometry" />
        </mxCell>
        <mxCell id="vbHlAzTgmcP7SMVzHsdD-9" style="edgeStyle=orthogonalEdgeStyle;rounded=0;orthogonalLoop=1;jettySize=auto;html=1;exitX=1;exitY=0.5;exitDx=0;exitDy=0;" parent="WIyWlLk6GJQsqaUBKTNV-1" source="vbHlAzTgmcP7SMVzHsdD-4" target="vbHlAzTgmcP7SMVzHsdD-6" edge="1">
          <mxGeometry relative="1" as="geometry" />
        </mxCell>
        <mxCell id="vbHlAzTgmcP7SMVzHsdD-4" value="保存Page&lt;br&gt;任务列表" style="rounded=1;whiteSpace=wrap;html=1;absoluteArcSize=1;arcSize=14;strokeWidth=2;" parent="WIyWlLk6GJQsqaUBKTNV-1" vertex="1">
          <mxGeometry x="470" y="725" width="80" height="50" as="geometry" />
        </mxCell>
        <mxCell id="vbHlAzTgmcP7SMVzHsdD-7" style="edgeStyle=orthogonalEdgeStyle;rounded=0;orthogonalLoop=1;jettySize=auto;html=1;exitX=0.5;exitY=0;exitDx=0;exitDy=0;entryX=1;entryY=0.5;entryDx=0;entryDy=0;" parent="WIyWlLk6GJQsqaUBKTNV-1" source="vbHlAzTgmcP7SMVzHsdD-6" target="n7_p6rtyUHWvbLUiibL5-4" edge="1">
          <mxGeometry relative="1" as="geometry" />
        </mxCell>
        <mxCell id="vbHlAzTgmcP7SMVzHsdD-8" value="NO" style="edgeLabel;html=1;align=center;verticalAlign=middle;resizable=0;points=[];" parent="vbHlAzTgmcP7SMVzHsdD-7" vertex="1" connectable="0">
          <mxGeometry x="-0.7926" relative="1" as="geometry">
            <mxPoint as="offset" />
          </mxGeometry>
        </mxCell>
        <mxCell id="vbHlAzTgmcP7SMVzHsdD-10" style="edgeStyle=orthogonalEdgeStyle;rounded=0;orthogonalLoop=1;jettySize=auto;html=1;exitX=0.5;exitY=1;exitDx=0;exitDy=0;entryX=1;entryY=0.5;entryDx=0;entryDy=0;" parent="WIyWlLk6GJQsqaUBKTNV-1" source="vbHlAzTgmcP7SMVzHsdD-6" target="UZ3TIBLTQS_dJuXPeL5W-15" edge="1">
          <mxGeometry relative="1" as="geometry" />
        </mxCell>
        <mxCell id="vbHlAzTgmcP7SMVzHsdD-6" value="是否循环完成" style="rhombus;whiteSpace=wrap;html=1;" parent="WIyWlLk6GJQsqaUBKTNV-1" vertex="1">
          <mxGeometry x="620" y="710" width="80" height="80" as="geometry" />
        </mxCell>
        <mxCell id="vbHlAzTgmcP7SMVzHsdD-14" value="异步模式：针对多个Page任务能支持同时发起异步请求，以便更快获得所有数据。" style="strokeWidth=2;html=1;shape=mxgraph.flowchart.document2;whiteSpace=wrap;size=0.25;" parent="WIyWlLk6GJQsqaUBKTNV-1" vertex="1">
          <mxGeometry x="110" y="710" width="120" height="100" as="geometry" />
        </mxCell>
        <mxCell id="L6I1wIQOH2HrOUwNeWIl-2" style="edgeStyle=orthogonalEdgeStyle;rounded=0;orthogonalLoop=1;jettySize=auto;html=1;exitX=0.5;exitY=1;exitDx=0;exitDy=0;entryX=0.5;entryY=0;entryDx=0;entryDy=0;" parent="WIyWlLk6GJQsqaUBKTNV-1" source="L6I1wIQOH2HrOUwNeWIl-0" target="UZ3TIBLTQS_dJuXPeL5W-5" edge="1">
          <mxGeometry relative="1" as="geometry" />
        </mxCell>
        <mxCell id="L6I1wIQOH2HrOUwNeWIl-7" style="edgeStyle=orthogonalEdgeStyle;rounded=0;orthogonalLoop=1;jettySize=auto;html=1;exitX=1;exitY=0.5;exitDx=0;exitDy=0;entryX=0;entryY=0.5;entryDx=0;entryDy=0;" parent="WIyWlLk6GJQsqaUBKTNV-1" source="L6I1wIQOH2HrOUwNeWIl-0" target="L6I1wIQOH2HrOUwNeWIl-3" edge="1">
          <mxGeometry relative="1" as="geometry" />
        </mxCell>
        <mxCell id="L6I1wIQOH2HrOUwNeWIl-0" value="启动WorkGroup处理工作线程" style="rounded=1;whiteSpace=wrap;html=1;absoluteArcSize=1;arcSize=14;strokeWidth=2;" parent="WIyWlLk6GJQsqaUBKTNV-1" vertex="1">
          <mxGeometry x="300" y="330" width="100" height="50" as="geometry" />
        </mxCell>
        <mxCell id="L6I1wIQOH2HrOUwNeWIl-8" style="edgeStyle=orthogonalEdgeStyle;rounded=0;orthogonalLoop=1;jettySize=auto;html=1;exitX=1;exitY=0.5;exitDx=0;exitDy=0;entryX=0;entryY=0.5;entryDx=0;entryDy=0;" parent="WIyWlLk6GJQsqaUBKTNV-1" source="L6I1wIQOH2HrOUwNeWIl-3" target="L6I1wIQOH2HrOUwNeWIl-4" edge="1">
          <mxGeometry relative="1" as="geometry" />
        </mxCell>
        <mxCell id="L6I1wIQOH2HrOUwNeWIl-3" value="尝试从待处理数据队列中取出元素" style="rounded=1;whiteSpace=wrap;html=1;absoluteArcSize=1;arcSize=14;strokeWidth=2;" parent="WIyWlLk6GJQsqaUBKTNV-1" vertex="1">
          <mxGeometry x="460" y="327.5" width="100" height="55" as="geometry" />
        </mxCell>
        <mxCell id="L6I1wIQOH2HrOUwNeWIl-5" style="edgeStyle=orthogonalEdgeStyle;rounded=0;orthogonalLoop=1;jettySize=auto;html=1;exitX=0.5;exitY=0;exitDx=0;exitDy=0;entryX=0.42;entryY=-0.018;entryDx=0;entryDy=0;entryPerimeter=0;" parent="WIyWlLk6GJQsqaUBKTNV-1" source="L6I1wIQOH2HrOUwNeWIl-4" target="L6I1wIQOH2HrOUwNeWIl-3" edge="1">
          <mxGeometry relative="1" as="geometry">
            <Array as="points">
              <mxPoint x="670" y="270" />
              <mxPoint x="502" y="270" />
            </Array>
          </mxGeometry>
        </mxCell>
        <mxCell id="L6I1wIQOH2HrOUwNeWIl-6" value="NO" style="edgeLabel;html=1;align=center;verticalAlign=middle;resizable=0;points=[];" parent="L6I1wIQOH2HrOUwNeWIl-5" vertex="1" connectable="0">
          <mxGeometry x="-0.6655" y="-2" relative="1" as="geometry">
            <mxPoint x="-2" y="18" as="offset" />
          </mxGeometry>
        </mxCell>
        <mxCell id="L6I1wIQOH2HrOUwNeWIl-12" style="edgeStyle=orthogonalEdgeStyle;rounded=0;orthogonalLoop=1;jettySize=auto;html=1;exitX=1;exitY=0.5;exitDx=0;exitDy=0;entryX=0;entryY=0.5;entryDx=0;entryDy=0;" parent="WIyWlLk6GJQsqaUBKTNV-1" source="L6I1wIQOH2HrOUwNeWIl-4" target="L6I1wIQOH2HrOUwNeWIl-9" edge="1">
          <mxGeometry relative="1" as="geometry">
            <Array as="points">
              <mxPoint x="760" y="355" />
              <mxPoint x="760" y="355" />
            </Array>
          </mxGeometry>
        </mxCell>
        <mxCell id="L6I1wIQOH2HrOUwNeWIl-13" value="YES" style="edgeLabel;html=1;align=center;verticalAlign=middle;resizable=0;points=[];" parent="L6I1wIQOH2HrOUwNeWIl-12" vertex="1" connectable="0">
          <mxGeometry x="-0.24" y="-1" relative="1" as="geometry">
            <mxPoint x="10" y="-1" as="offset" />
          </mxGeometry>
        </mxCell>
        <mxCell id="L6I1wIQOH2HrOUwNeWIl-4" value="是否取出" style="rhombus;whiteSpace=wrap;html=1;" parent="WIyWlLk6GJQsqaUBKTNV-1" vertex="1">
          <mxGeometry x="630" y="315" width="80" height="80" as="geometry" />
        </mxCell>
        <mxCell id="L6I1wIQOH2HrOUwNeWIl-15" style="edgeStyle=orthogonalEdgeStyle;rounded=0;orthogonalLoop=1;jettySize=auto;html=1;exitX=1;exitY=0.5;exitDx=0;exitDy=0;entryX=0.42;entryY=0.009;entryDx=0;entryDy=0;entryPerimeter=0;" parent="WIyWlLk6GJQsqaUBKTNV-1" source="L6I1wIQOH2HrOUwNeWIl-9" target="L6I1wIQOH2HrOUwNeWIl-3" edge="1">
          <mxGeometry relative="1" as="geometry">
            <Array as="points">
              <mxPoint x="900" y="355" />
              <mxPoint x="900" y="250" />
              <mxPoint x="502" y="250" />
            </Array>
          </mxGeometry>
        </mxCell>
        <mxCell id="L6I1wIQOH2HrOUwNeWIl-9" value="处理数据" style="rounded=1;whiteSpace=wrap;html=1;absoluteArcSize=1;arcSize=14;strokeWidth=2;" parent="WIyWlLk6GJQsqaUBKTNV-1" vertex="1">
          <mxGeometry x="790" y="332.5" width="90" height="45" as="geometry" />
        </mxCell>
      </root>
    </mxGraphModel>
  </diagram>
  <diagram id="WEyUdzajcBq6vqUwWrMW" name="Taker采集数据流程">
    <mxGraphModel dx="1852" dy="1777" grid="1" gridSize="10" guides="1" tooltips="1" connect="1" arrows="1" fold="1" page="1" pageScale="1" pageWidth="827" pageHeight="1169" math="0" shadow="0">
      <root>
        <mxCell id="ZaUsfXkcFRlvACKT7LFq-0" />
        <mxCell id="ZaUsfXkcFRlvACKT7LFq-1" parent="ZaUsfXkcFRlvACKT7LFq-0" />
        <mxCell id="xgVJnmbIDdsKQfzN1I1r-6" style="edgeStyle=orthogonalEdgeStyle;rounded=0;orthogonalLoop=1;jettySize=auto;html=1;exitX=0.5;exitY=1;exitDx=0;exitDy=0;exitPerimeter=0;fontSize=12;" parent="ZaUsfXkcFRlvACKT7LFq-1" source="xgVJnmbIDdsKQfzN1I1r-3" target="xgVJnmbIDdsKQfzN1I1r-4" edge="1">
          <mxGeometry relative="1" as="geometry" />
        </mxCell>
        <mxCell id="xgVJnmbIDdsKQfzN1I1r-3" value="&lt;font style=&quot;font-size: 12px&quot;&gt;开始&lt;/font&gt;" style="strokeWidth=2;html=1;shape=mxgraph.flowchart.start_2;whiteSpace=wrap;fontSize=18;" parent="ZaUsfXkcFRlvACKT7LFq-1" vertex="1">
          <mxGeometry x="225" y="-100" width="80" height="70" as="geometry" />
        </mxCell>
        <mxCell id="rDKSKTf11mnLkdFmxc5J-12" style="edgeStyle=orthogonalEdgeStyle;rounded=0;orthogonalLoop=1;jettySize=auto;html=1;exitX=0.5;exitY=1;exitDx=0;exitDy=0;entryX=0.5;entryY=0;entryDx=0;entryDy=0;" parent="ZaUsfXkcFRlvACKT7LFq-1" source="xgVJnmbIDdsKQfzN1I1r-4" target="rDKSKTf11mnLkdFmxc5J-0" edge="1">
          <mxGeometry relative="1" as="geometry" />
        </mxCell>
        <mxCell id="xgVJnmbIDdsKQfzN1I1r-4" value="保存分配IPage任务" style="rounded=1;whiteSpace=wrap;html=1;absoluteArcSize=1;arcSize=14;strokeWidth=2;fontSize=12;" parent="ZaUsfXkcFRlvACKT7LFq-1" vertex="1">
          <mxGeometry x="210" y="10" width="110" height="60" as="geometry" />
        </mxCell>
        <mxCell id="xgVJnmbIDdsKQfzN1I1r-9" style="edgeStyle=orthogonalEdgeStyle;rounded=0;orthogonalLoop=1;jettySize=auto;html=1;exitX=0.5;exitY=1;exitDx=0;exitDy=0;entryX=0.5;entryY=0;entryDx=0;entryDy=0;entryPerimeter=0;fontSize=12;" parent="ZaUsfXkcFRlvACKT7LFq-1" source="xgVJnmbIDdsKQfzN1I1r-5" target="xgVJnmbIDdsKQfzN1I1r-8" edge="1">
          <mxGeometry relative="1" as="geometry" />
        </mxCell>
        <mxCell id="xgVJnmbIDdsKQfzN1I1r-5" value="循环IPage中&lt;br&gt;每一个任务ITask" style="rounded=1;whiteSpace=wrap;html=1;absoluteArcSize=1;arcSize=14;strokeWidth=2;fontSize=12;" parent="ZaUsfXkcFRlvACKT7LFq-1" vertex="1">
          <mxGeometry x="215" y="270" width="100" height="70" as="geometry" />
        </mxCell>
        <mxCell id="xgVJnmbIDdsKQfzN1I1r-11" style="edgeStyle=orthogonalEdgeStyle;rounded=0;orthogonalLoop=1;jettySize=auto;html=1;exitX=1;exitY=0.5;exitDx=0;exitDy=0;exitPerimeter=0;entryX=0;entryY=0.5;entryDx=0;entryDy=0;fontSize=12;" parent="ZaUsfXkcFRlvACKT7LFq-1" source="xgVJnmbIDdsKQfzN1I1r-8" target="xgVJnmbIDdsKQfzN1I1r-10" edge="1">
          <mxGeometry relative="1" as="geometry" />
        </mxCell>
        <mxCell id="xgVJnmbIDdsKQfzN1I1r-51" value="NO" style="edgeLabel;html=1;align=center;verticalAlign=middle;resizable=0;points=[];fontSize=12;" parent="xgVJnmbIDdsKQfzN1I1r-11" vertex="1" connectable="0">
          <mxGeometry x="-0.3652" y="1" relative="1" as="geometry">
            <mxPoint as="offset" />
          </mxGeometry>
        </mxCell>
        <mxCell id="iSF0URauVqY8EJ7CMHif-1" style="edgeStyle=orthogonalEdgeStyle;rounded=0;orthogonalLoop=1;jettySize=auto;html=1;exitX=0;exitY=0.5;exitDx=0;exitDy=0;exitPerimeter=0;entryX=1;entryY=0.5;entryDx=0;entryDy=0;" parent="ZaUsfXkcFRlvACKT7LFq-1" source="xgVJnmbIDdsKQfzN1I1r-8" target="WpdQSmZYi1gO1WwjJDtc-0" edge="1">
          <mxGeometry relative="1" as="geometry">
            <mxPoint x="70" y="420" as="targetPoint" />
          </mxGeometry>
        </mxCell>
        <mxCell id="iSF0URauVqY8EJ7CMHif-2" value="YES" style="edgeLabel;html=1;align=center;verticalAlign=middle;resizable=0;points=[];" parent="iSF0URauVqY8EJ7CMHif-1" vertex="1" connectable="0">
          <mxGeometry x="-0.6714" relative="1" as="geometry">
            <mxPoint x="-30" as="offset" />
          </mxGeometry>
        </mxCell>
        <mxCell id="xgVJnmbIDdsKQfzN1I1r-8" value="是否Push模式数据" style="strokeWidth=2;html=1;shape=mxgraph.flowchart.decision;whiteSpace=wrap;fontSize=12;" parent="ZaUsfXkcFRlvACKT7LFq-1" vertex="1">
          <mxGeometry x="210" y="380" width="110" height="80" as="geometry" />
        </mxCell>
        <mxCell id="wNLIoll6W2vkY9qXhmkL-15" style="edgeStyle=orthogonalEdgeStyle;rounded=0;orthogonalLoop=1;jettySize=auto;html=1;exitX=1;exitY=0.5;exitDx=0;exitDy=0;fontSize=12;" parent="ZaUsfXkcFRlvACKT7LFq-1" source="xgVJnmbIDdsKQfzN1I1r-10" target="wNLIoll6W2vkY9qXhmkL-14" edge="1">
          <mxGeometry relative="1" as="geometry" />
        </mxCell>
        <mxCell id="xgVJnmbIDdsKQfzN1I1r-10" value="根据任务url发起&lt;br&gt;异步请求获得数据" style="rounded=1;whiteSpace=wrap;html=1;absoluteArcSize=1;arcSize=14;strokeWidth=2;fontSize=12;" parent="ZaUsfXkcFRlvACKT7LFq-1" vertex="1">
          <mxGeometry x="450" y="390" width="100" height="60" as="geometry" />
        </mxCell>
        <mxCell id="xgVJnmbIDdsKQfzN1I1r-42" style="edgeStyle=orthogonalEdgeStyle;rounded=0;orthogonalLoop=1;jettySize=auto;html=1;exitX=0.5;exitY=1;exitDx=0;exitDy=0;entryX=0.5;entryY=0;entryDx=0;entryDy=0;fontSize=12;" parent="ZaUsfXkcFRlvACKT7LFq-1" source="xgVJnmbIDdsKQfzN1I1r-20" target="xgVJnmbIDdsKQfzN1I1r-41" edge="1">
          <mxGeometry relative="1" as="geometry" />
        </mxCell>
        <mxCell id="wNLIoll6W2vkY9qXhmkL-3" value="NO" style="edgeLabel;html=1;align=center;verticalAlign=middle;resizable=0;points=[];fontSize=12;" parent="xgVJnmbIDdsKQfzN1I1r-42" vertex="1" connectable="0">
          <mxGeometry x="-0.3273" y="-1" relative="1" as="geometry">
            <mxPoint as="offset" />
          </mxGeometry>
        </mxCell>
        <mxCell id="wNLIoll6W2vkY9qXhmkL-1" style="edgeStyle=orthogonalEdgeStyle;rounded=0;orthogonalLoop=1;jettySize=auto;html=1;exitX=1;exitY=0.5;exitDx=0;exitDy=0;entryX=0;entryY=0.5;entryDx=0;entryDy=0;fontSize=12;" parent="ZaUsfXkcFRlvACKT7LFq-1" source="xgVJnmbIDdsKQfzN1I1r-20" target="xgVJnmbIDdsKQfzN1I1r-28" edge="1">
          <mxGeometry relative="1" as="geometry" />
        </mxCell>
        <mxCell id="wNLIoll6W2vkY9qXhmkL-2" value="YES" style="edgeLabel;html=1;align=center;verticalAlign=middle;resizable=0;points=[];fontSize=12;" parent="wNLIoll6W2vkY9qXhmkL-1" vertex="1" connectable="0">
          <mxGeometry x="-0.2" y="1" relative="1" as="geometry">
            <mxPoint as="offset" />
          </mxGeometry>
        </mxCell>
        <mxCell id="xgVJnmbIDdsKQfzN1I1r-20" value="检查返回数据&lt;br&gt;是否为空" style="rhombus;whiteSpace=wrap;html=1;fontSize=12;" parent="ZaUsfXkcFRlvACKT7LFq-1" vertex="1">
          <mxGeometry x="770" y="770" width="100" height="80" as="geometry" />
        </mxCell>
        <mxCell id="xgVJnmbIDdsKQfzN1I1r-37" style="edgeStyle=orthogonalEdgeStyle;rounded=0;orthogonalLoop=1;jettySize=auto;html=1;exitX=0.5;exitY=1;exitDx=0;exitDy=0;entryX=0.5;entryY=0;entryDx=0;entryDy=0;fontSize=12;" parent="ZaUsfXkcFRlvACKT7LFq-1" source="xgVJnmbIDdsKQfzN1I1r-22" target="xgVJnmbIDdsKQfzN1I1r-24" edge="1">
          <mxGeometry relative="1" as="geometry">
            <Array as="points">
              <mxPoint x="1140" y="1060" />
            </Array>
          </mxGeometry>
        </mxCell>
        <mxCell id="xgVJnmbIDdsKQfzN1I1r-22" value="清除当前Page任务，通过TakerManager回收当前Taker" style="rounded=1;whiteSpace=wrap;html=1;absoluteArcSize=1;arcSize=14;strokeWidth=2;fontSize=12;" parent="ZaUsfXkcFRlvACKT7LFq-1" vertex="1">
          <mxGeometry x="1080" y="920" width="120" height="70" as="geometry" />
        </mxCell>
        <mxCell id="wNLIoll6W2vkY9qXhmkL-27" style="edgeStyle=orthogonalEdgeStyle;rounded=0;orthogonalLoop=1;jettySize=auto;html=1;exitX=0.5;exitY=1;exitDx=0;exitDy=0;entryX=1;entryY=0.5;entryDx=0;entryDy=0;fontSize=12;" parent="ZaUsfXkcFRlvACKT7LFq-1" source="xgVJnmbIDdsKQfzN1I1r-24" target="wNLIoll6W2vkY9qXhmkL-28" edge="1">
          <mxGeometry relative="1" as="geometry">
            <mxPoint x="820" y="1270" as="targetPoint" />
          </mxGeometry>
        </mxCell>
        <mxCell id="xgVJnmbIDdsKQfzN1I1r-24" value="标明获取数据异常打包为待处理数据实体" style="rounded=1;whiteSpace=wrap;html=1;absoluteArcSize=1;arcSize=14;strokeWidth=2;fontSize=12;" parent="ZaUsfXkcFRlvACKT7LFq-1" vertex="1">
          <mxGeometry x="1085" y="1060" width="110" height="60" as="geometry" />
        </mxCell>
        <mxCell id="xgVJnmbIDdsKQfzN1I1r-31" style="edgeStyle=orthogonalEdgeStyle;rounded=0;orthogonalLoop=1;jettySize=auto;html=1;exitX=1;exitY=0.5;exitDx=0;exitDy=0;fontSize=12;" parent="ZaUsfXkcFRlvACKT7LFq-1" source="xgVJnmbIDdsKQfzN1I1r-28" target="xgVJnmbIDdsKQfzN1I1r-29" edge="1">
          <mxGeometry relative="1" as="geometry">
            <mxPoint x="1090" y="810" as="targetPoint" />
          </mxGeometry>
        </mxCell>
        <mxCell id="xgVJnmbIDdsKQfzN1I1r-28" value="为空计数+1" style="rounded=1;whiteSpace=wrap;html=1;absoluteArcSize=1;arcSize=14;strokeWidth=2;fontSize=12;" parent="ZaUsfXkcFRlvACKT7LFq-1" vertex="1">
          <mxGeometry x="960" y="790" width="80" height="40" as="geometry" />
        </mxCell>
        <mxCell id="xgVJnmbIDdsKQfzN1I1r-36" style="edgeStyle=orthogonalEdgeStyle;rounded=0;orthogonalLoop=1;jettySize=auto;html=1;exitX=0.5;exitY=1;exitDx=0;exitDy=0;entryX=0.5;entryY=0;entryDx=0;entryDy=0;fontSize=12;" parent="ZaUsfXkcFRlvACKT7LFq-1" source="xgVJnmbIDdsKQfzN1I1r-29" target="xgVJnmbIDdsKQfzN1I1r-22" edge="1">
          <mxGeometry relative="1" as="geometry" />
        </mxCell>
        <mxCell id="wNLIoll6W2vkY9qXhmkL-4" value="YES" style="edgeLabel;html=1;align=center;verticalAlign=middle;resizable=0;points=[];fontSize=12;" parent="xgVJnmbIDdsKQfzN1I1r-36" vertex="1" connectable="0">
          <mxGeometry x="-0.36" relative="1" as="geometry">
            <mxPoint as="offset" />
          </mxGeometry>
        </mxCell>
        <mxCell id="xgVJnmbIDdsKQfzN1I1r-48" style="edgeStyle=orthogonalEdgeStyle;rounded=0;orthogonalLoop=1;jettySize=auto;html=1;exitX=1;exitY=0.5;exitDx=0;exitDy=0;entryX=1;entryY=0.5;entryDx=0;entryDy=0;fontSize=12;" parent="ZaUsfXkcFRlvACKT7LFq-1" source="xgVJnmbIDdsKQfzN1I1r-29" target="xgVJnmbIDdsKQfzN1I1r-24" edge="1">
          <mxGeometry relative="1" as="geometry">
            <Array as="points">
              <mxPoint x="1230" y="810" />
              <mxPoint x="1230" y="1090" />
            </Array>
          </mxGeometry>
        </mxCell>
        <mxCell id="wNLIoll6W2vkY9qXhmkL-0" value="NO" style="edgeLabel;html=1;align=center;verticalAlign=middle;resizable=0;points=[];fontSize=12;" parent="xgVJnmbIDdsKQfzN1I1r-48" vertex="1" connectable="0">
          <mxGeometry x="-0.9104" y="-1" relative="1" as="geometry">
            <mxPoint as="offset" />
          </mxGeometry>
        </mxCell>
        <mxCell id="xgVJnmbIDdsKQfzN1I1r-29" value="是否3次为空" style="rhombus;whiteSpace=wrap;html=1;fontSize=12;" parent="ZaUsfXkcFRlvACKT7LFq-1" vertex="1">
          <mxGeometry x="1100" y="770" width="80" height="80" as="geometry" />
        </mxCell>
        <mxCell id="xgVJnmbIDdsKQfzN1I1r-38" value="结束" style="strokeWidth=2;html=1;shape=mxgraph.flowchart.terminator;whiteSpace=wrap;fontSize=12;" parent="ZaUsfXkcFRlvACKT7LFq-1" vertex="1">
          <mxGeometry x="215" y="1680" width="100" height="60" as="geometry" />
        </mxCell>
        <mxCell id="xgVJnmbIDdsKQfzN1I1r-44" style="edgeStyle=orthogonalEdgeStyle;rounded=0;orthogonalLoop=1;jettySize=auto;html=1;exitX=1;exitY=0.5;exitDx=0;exitDy=0;entryX=0;entryY=0.5;entryDx=0;entryDy=0;fontSize=12;" parent="ZaUsfXkcFRlvACKT7LFq-1" source="xgVJnmbIDdsKQfzN1I1r-41" target="xgVJnmbIDdsKQfzN1I1r-22" edge="1">
          <mxGeometry relative="1" as="geometry" />
        </mxCell>
        <mxCell id="xgVJnmbIDdsKQfzN1I1r-50" value="YES" style="edgeLabel;html=1;align=center;verticalAlign=middle;resizable=0;points=[];fontSize=12;" parent="xgVJnmbIDdsKQfzN1I1r-44" vertex="1" connectable="0">
          <mxGeometry x="-0.6526" relative="1" as="geometry">
            <mxPoint as="offset" />
          </mxGeometry>
        </mxCell>
        <mxCell id="wNLIoll6W2vkY9qXhmkL-38" style="edgeStyle=orthogonalEdgeStyle;rounded=0;orthogonalLoop=1;jettySize=auto;html=1;exitX=0.5;exitY=1;exitDx=0;exitDy=0;entryX=0.5;entryY=0;entryDx=0;entryDy=0;fontSize=12;" parent="ZaUsfXkcFRlvACKT7LFq-1" source="xgVJnmbIDdsKQfzN1I1r-41" target="wNLIoll6W2vkY9qXhmkL-5" edge="1">
          <mxGeometry relative="1" as="geometry" />
        </mxCell>
        <mxCell id="wNLIoll6W2vkY9qXhmkL-39" value="NO" style="edgeLabel;html=1;align=center;verticalAlign=middle;resizable=0;points=[];fontSize=12;" parent="wNLIoll6W2vkY9qXhmkL-38" vertex="1" connectable="0">
          <mxGeometry x="-0.2115" y="2" relative="1" as="geometry">
            <mxPoint as="offset" />
          </mxGeometry>
        </mxCell>
        <mxCell id="xgVJnmbIDdsKQfzN1I1r-41" value="数据是否&lt;br&gt;为登出" style="rhombus;whiteSpace=wrap;html=1;fontSize=12;" parent="ZaUsfXkcFRlvACKT7LFq-1" vertex="1">
          <mxGeometry x="780" y="915" width="80" height="80" as="geometry" />
        </mxCell>
        <mxCell id="wNLIoll6W2vkY9qXhmkL-31" style="edgeStyle=orthogonalEdgeStyle;rounded=0;orthogonalLoop=1;jettySize=auto;html=1;exitX=0.5;exitY=1;exitDx=0;exitDy=0;entryX=0.5;entryY=0;entryDx=0;entryDy=0;fontSize=12;" parent="ZaUsfXkcFRlvACKT7LFq-1" source="wNLIoll6W2vkY9qXhmkL-5" target="wNLIoll6W2vkY9qXhmkL-30" edge="1">
          <mxGeometry relative="1" as="geometry" />
        </mxCell>
        <mxCell id="wNLIoll6W2vkY9qXhmkL-5" value="将获取的正常数据打包为待处理数据实体" style="rounded=1;whiteSpace=wrap;html=1;absoluteArcSize=1;arcSize=14;strokeWidth=2;fontSize=12;" parent="ZaUsfXkcFRlvACKT7LFq-1" vertex="1">
          <mxGeometry x="770" y="1060" width="100" height="60" as="geometry" />
        </mxCell>
        <mxCell id="wNLIoll6W2vkY9qXhmkL-36" style="edgeStyle=orthogonalEdgeStyle;rounded=0;orthogonalLoop=1;jettySize=auto;html=1;exitX=0.5;exitY=1;exitDx=0;exitDy=0;entryX=1;entryY=0.5;entryDx=0;entryDy=0;fontSize=12;" parent="ZaUsfXkcFRlvACKT7LFq-1" source="wNLIoll6W2vkY9qXhmkL-10" target="wNLIoll6W2vkY9qXhmkL-28" edge="1">
          <mxGeometry relative="1" as="geometry" />
        </mxCell>
        <mxCell id="wNLIoll6W2vkY9qXhmkL-10" value="异步设置Taker&lt;br&gt;等待间隔时间" style="rounded=1;whiteSpace=wrap;html=1;absoluteArcSize=1;arcSize=14;strokeWidth=2;fontSize=12;" parent="ZaUsfXkcFRlvACKT7LFq-1" vertex="1">
          <mxGeometry x="770" y="1280" width="100" height="60" as="geometry" />
        </mxCell>
        <mxCell id="wNLIoll6W2vkY9qXhmkL-16" style="edgeStyle=orthogonalEdgeStyle;rounded=0;orthogonalLoop=1;jettySize=auto;html=1;exitX=0.5;exitY=0;exitDx=0;exitDy=0;exitPerimeter=0;entryX=1;entryY=0.5;entryDx=0;entryDy=0;fontSize=12;" parent="ZaUsfXkcFRlvACKT7LFq-1" source="wNLIoll6W2vkY9qXhmkL-14" target="xgVJnmbIDdsKQfzN1I1r-5" edge="1">
          <mxGeometry relative="1" as="geometry">
            <Array as="points">
              <mxPoint x="640" y="305" />
            </Array>
          </mxGeometry>
        </mxCell>
        <mxCell id="wNLIoll6W2vkY9qXhmkL-17" value="NO" style="edgeLabel;html=1;align=center;verticalAlign=middle;resizable=0;points=[];fontSize=12;" parent="wNLIoll6W2vkY9qXhmkL-16" vertex="1" connectable="0">
          <mxGeometry x="-0.7727" relative="1" as="geometry">
            <mxPoint as="offset" />
          </mxGeometry>
        </mxCell>
        <mxCell id="wNLIoll6W2vkY9qXhmkL-21" style="edgeStyle=orthogonalEdgeStyle;rounded=0;orthogonalLoop=1;jettySize=auto;html=1;exitX=1;exitY=0.5;exitDx=0;exitDy=0;exitPerimeter=0;fontSize=12;entryX=0;entryY=0.5;entryDx=0;entryDy=0;" parent="ZaUsfXkcFRlvACKT7LFq-1" source="wNLIoll6W2vkY9qXhmkL-14" target="rDKSKTf11mnLkdFmxc5J-1" edge="1">
          <mxGeometry relative="1" as="geometry" />
        </mxCell>
        <mxCell id="wNLIoll6W2vkY9qXhmkL-23" value="YES" style="edgeLabel;html=1;align=center;verticalAlign=middle;resizable=0;points=[];fontSize=12;" parent="wNLIoll6W2vkY9qXhmkL-21" vertex="1" connectable="0">
          <mxGeometry x="0.2174" y="1" relative="1" as="geometry">
            <mxPoint as="offset" />
          </mxGeometry>
        </mxCell>
        <mxCell id="wNLIoll6W2vkY9qXhmkL-14" value="是否所有任务&lt;br&gt;都已发起请求" style="strokeWidth=2;html=1;shape=mxgraph.flowchart.decision;whiteSpace=wrap;fontSize=12;" parent="ZaUsfXkcFRlvACKT7LFq-1" vertex="1">
          <mxGeometry x="590" y="370" width="100" height="100" as="geometry" />
        </mxCell>
        <mxCell id="wNLIoll6W2vkY9qXhmkL-25" style="edgeStyle=orthogonalEdgeStyle;rounded=0;orthogonalLoop=1;jettySize=auto;html=1;exitX=0.5;exitY=1;exitDx=0;exitDy=0;entryX=0.5;entryY=0;entryDx=0;entryDy=0;fontSize=12;" parent="ZaUsfXkcFRlvACKT7LFq-1" source="wNLIoll6W2vkY9qXhmkL-18" target="wNLIoll6W2vkY9qXhmkL-24" edge="1">
          <mxGeometry relative="1" as="geometry" />
        </mxCell>
        <mxCell id="wNLIoll6W2vkY9qXhmkL-18" value="等待所有请求返回" style="rounded=1;whiteSpace=wrap;html=1;absoluteArcSize=1;arcSize=14;strokeWidth=2;fontSize=12;" parent="ZaUsfXkcFRlvACKT7LFq-1" vertex="1">
          <mxGeometry x="770" y="560" width="100" height="50" as="geometry" />
        </mxCell>
        <mxCell id="wNLIoll6W2vkY9qXhmkL-26" style="edgeStyle=orthogonalEdgeStyle;rounded=0;orthogonalLoop=1;jettySize=auto;html=1;exitX=0.5;exitY=1;exitDx=0;exitDy=0;entryX=0.5;entryY=0;entryDx=0;entryDy=0;fontSize=12;" parent="ZaUsfXkcFRlvACKT7LFq-1" source="wNLIoll6W2vkY9qXhmkL-24" target="xgVJnmbIDdsKQfzN1I1r-20" edge="1">
          <mxGeometry relative="1" as="geometry" />
        </mxCell>
        <mxCell id="wNLIoll6W2vkY9qXhmkL-24" value="循环每一个&lt;br&gt;请求返回数据" style="rounded=1;whiteSpace=wrap;html=1;absoluteArcSize=1;arcSize=14;strokeWidth=2;fontSize=12;" parent="ZaUsfXkcFRlvACKT7LFq-1" vertex="1">
          <mxGeometry x="770" y="650" width="100" height="60" as="geometry" />
        </mxCell>
        <mxCell id="wNLIoll6W2vkY9qXhmkL-37" style="edgeStyle=orthogonalEdgeStyle;rounded=0;orthogonalLoop=1;jettySize=auto;html=1;exitX=0.5;exitY=1;exitDx=0;exitDy=0;entryX=0.5;entryY=0;entryDx=0;entryDy=0;entryPerimeter=0;fontSize=12;" parent="ZaUsfXkcFRlvACKT7LFq-1" source="wNLIoll6W2vkY9qXhmkL-28" target="xgVJnmbIDdsKQfzN1I1r-38" edge="1">
          <mxGeometry relative="1" as="geometry" />
        </mxCell>
        <mxCell id="wNLIoll6W2vkY9qXhmkL-28" value="&lt;span&gt;压入待处理&lt;br&gt;数据队列中&lt;/span&gt;" style="rounded=1;whiteSpace=wrap;html=1;absoluteArcSize=1;arcSize=14;strokeWidth=2;fontSize=12;" parent="ZaUsfXkcFRlvACKT7LFq-1" vertex="1">
          <mxGeometry x="215" y="1570" width="100" height="60" as="geometry" />
        </mxCell>
        <mxCell id="wNLIoll6W2vkY9qXhmkL-32" style="edgeStyle=orthogonalEdgeStyle;rounded=0;orthogonalLoop=1;jettySize=auto;html=1;exitX=0;exitY=0.5;exitDx=0;exitDy=0;entryX=0;entryY=0.5;entryDx=0;entryDy=0;fontSize=12;" parent="ZaUsfXkcFRlvACKT7LFq-1" source="wNLIoll6W2vkY9qXhmkL-30" target="wNLIoll6W2vkY9qXhmkL-24" edge="1">
          <mxGeometry relative="1" as="geometry">
            <Array as="points">
              <mxPoint x="690" y="1190" />
              <mxPoint x="690" y="680" />
            </Array>
          </mxGeometry>
        </mxCell>
        <mxCell id="wNLIoll6W2vkY9qXhmkL-33" value="NO" style="edgeLabel;html=1;align=center;verticalAlign=middle;resizable=0;points=[];fontSize=12;" parent="wNLIoll6W2vkY9qXhmkL-32" vertex="1" connectable="0">
          <mxGeometry x="-0.9289" y="1" relative="1" as="geometry">
            <mxPoint as="offset" />
          </mxGeometry>
        </mxCell>
        <mxCell id="wNLIoll6W2vkY9qXhmkL-34" style="edgeStyle=orthogonalEdgeStyle;rounded=0;orthogonalLoop=1;jettySize=auto;html=1;exitX=0.5;exitY=1;exitDx=0;exitDy=0;entryX=0.5;entryY=0;entryDx=0;entryDy=0;fontSize=12;" parent="ZaUsfXkcFRlvACKT7LFq-1" source="wNLIoll6W2vkY9qXhmkL-30" target="wNLIoll6W2vkY9qXhmkL-10" edge="1">
          <mxGeometry relative="1" as="geometry" />
        </mxCell>
        <mxCell id="wNLIoll6W2vkY9qXhmkL-35" value="YES" style="edgeLabel;html=1;align=center;verticalAlign=middle;resizable=0;points=[];fontSize=12;" parent="wNLIoll6W2vkY9qXhmkL-34" vertex="1" connectable="0">
          <mxGeometry x="-0.6615" relative="1" as="geometry">
            <mxPoint y="12" as="offset" />
          </mxGeometry>
        </mxCell>
        <mxCell id="wNLIoll6W2vkY9qXhmkL-30" value="是否所有返回&lt;br&gt;数据已打包" style="rhombus;whiteSpace=wrap;html=1;fontSize=12;" parent="ZaUsfXkcFRlvACKT7LFq-1" vertex="1">
          <mxGeometry x="775" y="1150" width="90" height="80" as="geometry" />
        </mxCell>
        <mxCell id="WpdQSmZYi1gO1WwjJDtc-1" style="edgeStyle=orthogonalEdgeStyle;rounded=0;orthogonalLoop=1;jettySize=auto;html=1;exitX=0;exitY=0.5;exitDx=0;exitDy=0;entryX=1;entryY=0.5;entryDx=0;entryDy=0;" parent="ZaUsfXkcFRlvACKT7LFq-1" source="WpdQSmZYi1gO1WwjJDtc-0" target="J-anjrveHmPRNN6yUTZa-0" edge="1">
          <mxGeometry relative="1" as="geometry" />
        </mxCell>
        <mxCell id="WpdQSmZYi1gO1WwjJDtc-2" value="YES" style="edgeLabel;html=1;align=center;verticalAlign=middle;resizable=0;points=[];" parent="WpdQSmZYi1gO1WwjJDtc-1" vertex="1" connectable="0">
          <mxGeometry x="-0.7739" relative="1" as="geometry">
            <mxPoint x="-28" as="offset" />
          </mxGeometry>
        </mxCell>
        <mxCell id="WpdQSmZYi1gO1WwjJDtc-4" style="edgeStyle=orthogonalEdgeStyle;rounded=0;orthogonalLoop=1;jettySize=auto;html=1;entryX=0.5;entryY=0;entryDx=0;entryDy=0;" parent="ZaUsfXkcFRlvACKT7LFq-1" source="WpdQSmZYi1gO1WwjJDtc-0" target="WpdQSmZYi1gO1WwjJDtc-3" edge="1">
          <mxGeometry relative="1" as="geometry" />
        </mxCell>
        <mxCell id="WpdQSmZYi1gO1WwjJDtc-6" value="NO" style="edgeLabel;html=1;align=center;verticalAlign=middle;resizable=0;points=[];" parent="WpdQSmZYi1gO1WwjJDtc-4" vertex="1" connectable="0">
          <mxGeometry x="-0.1857" y="1" relative="1" as="geometry">
            <mxPoint as="offset" />
          </mxGeometry>
        </mxCell>
        <mxCell id="WpdQSmZYi1gO1WwjJDtc-0" value="检查任务&lt;br&gt;是否发起订阅" style="rhombus;whiteSpace=wrap;html=1;" parent="ZaUsfXkcFRlvACKT7LFq-1" vertex="1">
          <mxGeometry x="-10" y="380" width="100" height="80" as="geometry" />
        </mxCell>
        <mxCell id="J-anjrveHmPRNN6yUTZa-3" style="edgeStyle=orthogonalEdgeStyle;rounded=0;orthogonalLoop=1;jettySize=auto;html=1;exitX=0;exitY=0.5;exitDx=0;exitDy=0;entryX=0.5;entryY=1;entryDx=0;entryDy=0;" parent="ZaUsfXkcFRlvACKT7LFq-1" source="WpdQSmZYi1gO1WwjJDtc-3" target="J-anjrveHmPRNN6yUTZa-0" edge="1">
          <mxGeometry relative="1" as="geometry" />
        </mxCell>
        <mxCell id="J-anjrveHmPRNN6yUTZa-7" style="edgeStyle=orthogonalEdgeStyle;rounded=0;orthogonalLoop=1;jettySize=auto;html=1;exitX=0.5;exitY=1;exitDx=0;exitDy=0;" parent="ZaUsfXkcFRlvACKT7LFq-1" source="WpdQSmZYi1gO1WwjJDtc-3" target="J-anjrveHmPRNN6yUTZa-6" edge="1">
          <mxGeometry relative="1" as="geometry" />
        </mxCell>
        <mxCell id="WpdQSmZYi1gO1WwjJDtc-3" value="设定任务状态&lt;br&gt;正在订阅中&lt;br&gt;进行数据订阅" style="rounded=1;whiteSpace=wrap;html=1;absoluteArcSize=1;arcSize=14;strokeWidth=2;" parent="ZaUsfXkcFRlvACKT7LFq-1" vertex="1">
          <mxGeometry x="-10" y="560" width="100" height="100" as="geometry" />
        </mxCell>
        <mxCell id="J-anjrveHmPRNN6yUTZa-1" style="edgeStyle=orthogonalEdgeStyle;rounded=0;orthogonalLoop=1;jettySize=auto;html=1;exitX=0.5;exitY=0;exitDx=0;exitDy=0;entryX=0;entryY=0.5;entryDx=0;entryDy=0;" parent="ZaUsfXkcFRlvACKT7LFq-1" source="J-anjrveHmPRNN6yUTZa-0" target="xgVJnmbIDdsKQfzN1I1r-5" edge="1">
          <mxGeometry relative="1" as="geometry" />
        </mxCell>
        <mxCell id="J-anjrveHmPRNN6yUTZa-2" value="NO" style="edgeLabel;html=1;align=center;verticalAlign=middle;resizable=0;points=[];" parent="J-anjrveHmPRNN6yUTZa-1" vertex="1" connectable="0">
          <mxGeometry x="-0.8713" y="1" relative="1" as="geometry">
            <mxPoint as="offset" />
          </mxGeometry>
        </mxCell>
        <mxCell id="J-anjrveHmPRNN6yUTZa-4" style="edgeStyle=orthogonalEdgeStyle;rounded=0;orthogonalLoop=1;jettySize=auto;html=1;exitX=0.5;exitY=1;exitDx=0;exitDy=0;entryX=0;entryY=0.5;entryDx=0;entryDy=0;entryPerimeter=0;" parent="ZaUsfXkcFRlvACKT7LFq-1" source="rDKSKTf11mnLkdFmxc5J-2" target="xgVJnmbIDdsKQfzN1I1r-38" edge="1">
          <mxGeometry relative="1" as="geometry">
            <mxPoint x="-250" y="1010" as="targetPoint" />
            <Array as="points">
              <mxPoint x="-380" y="1710" />
            </Array>
          </mxGeometry>
        </mxCell>
        <mxCell id="J-anjrveHmPRNN6yUTZa-5" value="YES" style="edgeLabel;html=1;align=center;verticalAlign=middle;resizable=0;points=[];" parent="J-anjrveHmPRNN6yUTZa-4" vertex="1" connectable="0">
          <mxGeometry x="-0.9643" y="-1" relative="1" as="geometry">
            <mxPoint x="1" y="22.06" as="offset" />
          </mxGeometry>
        </mxCell>
        <mxCell id="rDKSKTf11mnLkdFmxc5J-8" style="edgeStyle=orthogonalEdgeStyle;rounded=0;orthogonalLoop=1;jettySize=auto;html=1;exitX=0;exitY=0.5;exitDx=0;exitDy=0;entryX=1;entryY=0.5;entryDx=0;entryDy=0;" parent="ZaUsfXkcFRlvACKT7LFq-1" source="J-anjrveHmPRNN6yUTZa-0" target="rDKSKTf11mnLkdFmxc5J-2" edge="1">
          <mxGeometry relative="1" as="geometry" />
        </mxCell>
        <mxCell id="rDKSKTf11mnLkdFmxc5J-9" value="YES" style="edgeLabel;html=1;align=center;verticalAlign=middle;resizable=0;points=[];" parent="rDKSKTf11mnLkdFmxc5J-8" vertex="1" connectable="0">
          <mxGeometry x="0.2017" y="-1" relative="1" as="geometry">
            <mxPoint as="offset" />
          </mxGeometry>
        </mxCell>
        <mxCell id="J-anjrveHmPRNN6yUTZa-0" value="是否循环完&lt;br&gt;所有任务" style="rhombus;whiteSpace=wrap;html=1;" parent="ZaUsfXkcFRlvACKT7LFq-1" vertex="1">
          <mxGeometry x="-210" y="380" width="90" height="80" as="geometry" />
        </mxCell>
        <mxCell id="J-anjrveHmPRNN6yUTZa-9" style="edgeStyle=orthogonalEdgeStyle;rounded=0;orthogonalLoop=1;jettySize=auto;html=1;exitX=0.5;exitY=1;exitDx=0;exitDy=0;entryX=0.5;entryY=0;entryDx=0;entryDy=0;" parent="ZaUsfXkcFRlvACKT7LFq-1" source="J-anjrveHmPRNN6yUTZa-6" target="J-anjrveHmPRNN6yUTZa-8" edge="1">
          <mxGeometry relative="1" as="geometry" />
        </mxCell>
        <mxCell id="J-anjrveHmPRNN6yUTZa-6" value="异步等待&lt;br&gt;订阅返回结果" style="rounded=1;whiteSpace=wrap;html=1;absoluteArcSize=1;arcSize=14;strokeWidth=2;" parent="ZaUsfXkcFRlvACKT7LFq-1" vertex="1">
          <mxGeometry x="-10" y="710" width="100" height="60" as="geometry" />
        </mxCell>
        <mxCell id="J-anjrveHmPRNN6yUTZa-11" style="edgeStyle=orthogonalEdgeStyle;rounded=0;orthogonalLoop=1;jettySize=auto;html=1;exitX=0;exitY=0.5;exitDx=0;exitDy=0;entryX=1;entryY=0.5;entryDx=0;entryDy=0;" parent="ZaUsfXkcFRlvACKT7LFq-1" source="J-anjrveHmPRNN6yUTZa-8" target="J-anjrveHmPRNN6yUTZa-10" edge="1">
          <mxGeometry relative="1" as="geometry" />
        </mxCell>
        <mxCell id="J-anjrveHmPRNN6yUTZa-13" value="YES" style="edgeLabel;html=1;align=center;verticalAlign=middle;resizable=0;points=[];" parent="J-anjrveHmPRNN6yUTZa-11" vertex="1" connectable="0">
          <mxGeometry x="-0.2857" y="2" relative="1" as="geometry">
            <mxPoint x="-11" y="-2" as="offset" />
          </mxGeometry>
        </mxCell>
        <mxCell id="J-anjrveHmPRNN6yUTZa-15" style="edgeStyle=orthogonalEdgeStyle;rounded=0;orthogonalLoop=1;jettySize=auto;html=1;exitX=0.5;exitY=1;exitDx=0;exitDy=0;" parent="ZaUsfXkcFRlvACKT7LFq-1" source="J-anjrveHmPRNN6yUTZa-8" target="J-anjrveHmPRNN6yUTZa-19" edge="1">
          <mxGeometry relative="1" as="geometry">
            <mxPoint x="220" y="930" as="targetPoint" />
          </mxGeometry>
        </mxCell>
        <mxCell id="J-anjrveHmPRNN6yUTZa-16" value="NO" style="edgeLabel;html=1;align=center;verticalAlign=middle;resizable=0;points=[];" parent="J-anjrveHmPRNN6yUTZa-15" vertex="1" connectable="0">
          <mxGeometry x="-0.3429" y="1" relative="1" as="geometry">
            <mxPoint as="offset" />
          </mxGeometry>
        </mxCell>
        <mxCell id="J-anjrveHmPRNN6yUTZa-8" value="是否返回超时" style="rhombus;whiteSpace=wrap;html=1;" parent="ZaUsfXkcFRlvACKT7LFq-1" vertex="1">
          <mxGeometry y="810" width="80" height="80" as="geometry" />
        </mxCell>
        <mxCell id="J-anjrveHmPRNN6yUTZa-12" style="edgeStyle=orthogonalEdgeStyle;rounded=0;orthogonalLoop=1;jettySize=auto;html=1;exitX=0.5;exitY=1;exitDx=0;exitDy=0;entryX=0;entryY=0.5;entryDx=0;entryDy=0;entryPerimeter=0;" parent="ZaUsfXkcFRlvACKT7LFq-1" source="J-anjrveHmPRNN6yUTZa-10" target="xgVJnmbIDdsKQfzN1I1r-38" edge="1">
          <mxGeometry relative="1" as="geometry" />
        </mxCell>
        <mxCell id="J-anjrveHmPRNN6yUTZa-10" value="设定任务状态&lt;br&gt;为未订阅" style="rounded=1;whiteSpace=wrap;html=1;absoluteArcSize=1;arcSize=14;strokeWidth=2;" parent="ZaUsfXkcFRlvACKT7LFq-1" vertex="1">
          <mxGeometry x="-350" y="815" width="100" height="70" as="geometry" />
        </mxCell>
        <mxCell id="J-anjrveHmPRNN6yUTZa-17" style="edgeStyle=orthogonalEdgeStyle;rounded=0;orthogonalLoop=1;jettySize=auto;html=1;exitX=0.5;exitY=1;exitDx=0;exitDy=0;entryX=0;entryY=0.5;entryDx=0;entryDy=0;" parent="ZaUsfXkcFRlvACKT7LFq-1" source="J-anjrveHmPRNN6yUTZa-14" target="wNLIoll6W2vkY9qXhmkL-28" edge="1">
          <mxGeometry relative="1" as="geometry" />
        </mxCell>
        <mxCell id="J-anjrveHmPRNN6yUTZa-14" value="设定任务状态&lt;br&gt;为已订阅&lt;br&gt;将返回的数据打包为待处理数据实体" style="rounded=1;whiteSpace=wrap;html=1;absoluteArcSize=1;arcSize=14;strokeWidth=2;" parent="ZaUsfXkcFRlvACKT7LFq-1" vertex="1">
          <mxGeometry x="-10" y="1110" width="100" height="100" as="geometry" />
        </mxCell>
        <mxCell id="J-anjrveHmPRNN6yUTZa-22" style="edgeStyle=orthogonalEdgeStyle;rounded=0;orthogonalLoop=1;jettySize=auto;html=1;exitX=0;exitY=0.5;exitDx=0;exitDy=0;entryX=1;entryY=0.5;entryDx=0;entryDy=0;" parent="ZaUsfXkcFRlvACKT7LFq-1" source="J-anjrveHmPRNN6yUTZa-19" target="J-anjrveHmPRNN6yUTZa-20" edge="1">
          <mxGeometry relative="1" as="geometry" />
        </mxCell>
        <mxCell id="J-anjrveHmPRNN6yUTZa-24" value="YES" style="edgeLabel;html=1;align=center;verticalAlign=middle;resizable=0;points=[];" parent="J-anjrveHmPRNN6yUTZa-22" vertex="1" connectable="0">
          <mxGeometry x="-0.2545" relative="1" as="geometry">
            <mxPoint as="offset" />
          </mxGeometry>
        </mxCell>
        <mxCell id="J-anjrveHmPRNN6yUTZa-25" style="edgeStyle=orthogonalEdgeStyle;rounded=0;orthogonalLoop=1;jettySize=auto;html=1;exitX=0.5;exitY=1;exitDx=0;exitDy=0;entryX=0.5;entryY=0;entryDx=0;entryDy=0;" parent="ZaUsfXkcFRlvACKT7LFq-1" source="J-anjrveHmPRNN6yUTZa-19" target="J-anjrveHmPRNN6yUTZa-14" edge="1">
          <mxGeometry relative="1" as="geometry" />
        </mxCell>
        <mxCell id="J-anjrveHmPRNN6yUTZa-26" value="NO" style="edgeLabel;html=1;align=center;verticalAlign=middle;resizable=0;points=[];" parent="J-anjrveHmPRNN6yUTZa-25" vertex="1" connectable="0">
          <mxGeometry x="-0.25" y="-1" relative="1" as="geometry">
            <mxPoint as="offset" />
          </mxGeometry>
        </mxCell>
        <mxCell id="J-anjrveHmPRNN6yUTZa-19" value="检查返回数据&lt;br&gt;是否为登出" style="rhombus;whiteSpace=wrap;html=1;" parent="ZaUsfXkcFRlvACKT7LFq-1" vertex="1">
          <mxGeometry x="-10" y="950" width="100" height="80" as="geometry" />
        </mxCell>
        <mxCell id="J-anjrveHmPRNN6yUTZa-23" style="edgeStyle=orthogonalEdgeStyle;rounded=0;orthogonalLoop=1;jettySize=auto;html=1;exitX=0.5;exitY=1;exitDx=0;exitDy=0;entryX=0.5;entryY=0;entryDx=0;entryDy=0;" parent="ZaUsfXkcFRlvACKT7LFq-1" source="J-anjrveHmPRNN6yUTZa-20" target="J-anjrveHmPRNN6yUTZa-21" edge="1">
          <mxGeometry relative="1" as="geometry" />
        </mxCell>
        <mxCell id="J-anjrveHmPRNN6yUTZa-20" value="清除当前Page任务，通过TakerManager回收当前Taker" style="rounded=1;whiteSpace=wrap;html=1;absoluteArcSize=1;arcSize=14;strokeWidth=2;fontSize=12;" parent="ZaUsfXkcFRlvACKT7LFq-1" vertex="1">
          <mxGeometry x="-240" y="955" width="120" height="70" as="geometry" />
        </mxCell>
        <mxCell id="J-anjrveHmPRNN6yUTZa-27" style="edgeStyle=orthogonalEdgeStyle;rounded=0;orthogonalLoop=1;jettySize=auto;html=1;exitX=0.5;exitY=1;exitDx=0;exitDy=0;entryX=0;entryY=0.5;entryDx=0;entryDy=0;" parent="ZaUsfXkcFRlvACKT7LFq-1" source="J-anjrveHmPRNN6yUTZa-21" target="wNLIoll6W2vkY9qXhmkL-28" edge="1">
          <mxGeometry relative="1" as="geometry" />
        </mxCell>
        <mxCell id="J-anjrveHmPRNN6yUTZa-21" value="标明获取数据异常打包为待处理数据实体" style="rounded=1;whiteSpace=wrap;html=1;absoluteArcSize=1;arcSize=14;strokeWidth=2;fontSize=12;" parent="ZaUsfXkcFRlvACKT7LFq-1" vertex="1">
          <mxGeometry x="-235" y="1130" width="110" height="60" as="geometry" />
        </mxCell>
        <mxCell id="rDKSKTf11mnLkdFmxc5J-13" style="edgeStyle=orthogonalEdgeStyle;rounded=0;orthogonalLoop=1;jettySize=auto;html=1;exitX=0.5;exitY=1;exitDx=0;exitDy=0;" parent="ZaUsfXkcFRlvACKT7LFq-1" source="rDKSKTf11mnLkdFmxc5J-0" target="xgVJnmbIDdsKQfzN1I1r-5" edge="1">
          <mxGeometry relative="1" as="geometry" />
        </mxCell>
        <mxCell id="rDKSKTf11mnLkdFmxc5J-0" value="循环IPage任务" style="rounded=1;whiteSpace=wrap;html=1;absoluteArcSize=1;arcSize=14;strokeWidth=2;" parent="ZaUsfXkcFRlvACKT7LFq-1" vertex="1">
          <mxGeometry x="205" y="130" width="120" height="50" as="geometry" />
        </mxCell>
        <mxCell id="rDKSKTf11mnLkdFmxc5J-4" style="edgeStyle=orthogonalEdgeStyle;rounded=0;orthogonalLoop=1;jettySize=auto;html=1;exitX=0.5;exitY=0;exitDx=0;exitDy=0;entryX=1;entryY=0.5;entryDx=0;entryDy=0;" parent="ZaUsfXkcFRlvACKT7LFq-1" source="rDKSKTf11mnLkdFmxc5J-1" target="rDKSKTf11mnLkdFmxc5J-0" edge="1">
          <mxGeometry relative="1" as="geometry">
            <Array as="points">
              <mxPoint x="820" y="155" />
            </Array>
          </mxGeometry>
        </mxCell>
        <mxCell id="rDKSKTf11mnLkdFmxc5J-5" value="NO" style="edgeLabel;html=1;align=center;verticalAlign=middle;resizable=0;points=[];" parent="rDKSKTf11mnLkdFmxc5J-4" vertex="1" connectable="0">
          <mxGeometry x="-0.8803" relative="1" as="geometry">
            <mxPoint x="-20.59" as="offset" />
          </mxGeometry>
        </mxCell>
        <mxCell id="rDKSKTf11mnLkdFmxc5J-6" style="edgeStyle=orthogonalEdgeStyle;rounded=0;orthogonalLoop=1;jettySize=auto;html=1;exitX=0.5;exitY=1;exitDx=0;exitDy=0;entryX=0.5;entryY=0;entryDx=0;entryDy=0;" parent="ZaUsfXkcFRlvACKT7LFq-1" source="rDKSKTf11mnLkdFmxc5J-1" target="wNLIoll6W2vkY9qXhmkL-18" edge="1">
          <mxGeometry relative="1" as="geometry">
            <Array as="points">
              <mxPoint x="820" y="520" />
              <mxPoint x="820" y="520" />
            </Array>
          </mxGeometry>
        </mxCell>
        <mxCell id="rDKSKTf11mnLkdFmxc5J-7" value="YES" style="edgeLabel;html=1;align=center;verticalAlign=middle;resizable=0;points=[];" parent="rDKSKTf11mnLkdFmxc5J-6" vertex="1" connectable="0">
          <mxGeometry x="0.0974" y="2" relative="1" as="geometry">
            <mxPoint as="offset" />
          </mxGeometry>
        </mxCell>
        <mxCell id="rDKSKTf11mnLkdFmxc5J-1" value="是否循环完&lt;br&gt;所有Page任务" style="rhombus;whiteSpace=wrap;html=1;" parent="ZaUsfXkcFRlvACKT7LFq-1" vertex="1">
          <mxGeometry x="770" y="375" width="100" height="90" as="geometry" />
        </mxCell>
        <mxCell id="rDKSKTf11mnLkdFmxc5J-10" style="edgeStyle=orthogonalEdgeStyle;rounded=0;orthogonalLoop=1;jettySize=auto;html=1;exitX=0.5;exitY=0;exitDx=0;exitDy=0;entryX=0;entryY=0.5;entryDx=0;entryDy=0;" parent="ZaUsfXkcFRlvACKT7LFq-1" source="rDKSKTf11mnLkdFmxc5J-2" target="rDKSKTf11mnLkdFmxc5J-0" edge="1">
          <mxGeometry relative="1" as="geometry" />
        </mxCell>
        <mxCell id="rDKSKTf11mnLkdFmxc5J-11" value="NO" style="edgeLabel;html=1;align=center;verticalAlign=middle;resizable=0;points=[];" parent="rDKSKTf11mnLkdFmxc5J-10" vertex="1" connectable="0">
          <mxGeometry x="-0.787" y="-1" relative="1" as="geometry">
            <mxPoint as="offset" />
          </mxGeometry>
        </mxCell>
        <mxCell id="rDKSKTf11mnLkdFmxc5J-2" value="是否循环完&lt;br&gt;所有Page任务" style="rhombus;whiteSpace=wrap;html=1;" parent="ZaUsfXkcFRlvACKT7LFq-1" vertex="1">
          <mxGeometry x="-430" y="375" width="100" height="90" as="geometry" />
        </mxCell>
      </root>
    </mxGraphModel>
  </diagram>
  <diagram id="xri8TnlfrImVp875hQxH" name="处理数据流程">
    <mxGraphModel dx="1043" dy="612" grid="1" gridSize="10" guides="1" tooltips="1" connect="1" arrows="1" fold="1" page="1" pageScale="1" pageWidth="827" pageHeight="1169" math="0" shadow="0">
      <root>
        <mxCell id="yrDE9MnWZiMsTK1-ACAq-0" />
        <mxCell id="yrDE9MnWZiMsTK1-ACAq-1" parent="yrDE9MnWZiMsTK1-ACAq-0" />
        <mxCell id="2QvLHBp84P5aui0mpsbR-5" style="edgeStyle=orthogonalEdgeStyle;rounded=0;orthogonalLoop=1;jettySize=auto;html=1;exitX=0.5;exitY=1;exitDx=0;exitDy=0;exitPerimeter=0;entryX=0.5;entryY=0;entryDx=0;entryDy=0;" parent="yrDE9MnWZiMsTK1-ACAq-1" source="UTeitkMyc5_udvKY01fj-0" target="2QvLHBp84P5aui0mpsbR-0" edge="1">
          <mxGeometry relative="1" as="geometry" />
        </mxCell>
        <mxCell id="UTeitkMyc5_udvKY01fj-0" value="开始" style="strokeWidth=2;html=1;shape=mxgraph.flowchart.start_1;whiteSpace=wrap;align=center;" parent="yrDE9MnWZiMsTK1-ACAq-1" vertex="1">
          <mxGeometry x="364" y="210" width="100" height="60" as="geometry" />
        </mxCell>
        <mxCell id="2QvLHBp84P5aui0mpsbR-6" style="edgeStyle=orthogonalEdgeStyle;rounded=0;orthogonalLoop=1;jettySize=auto;html=1;exitX=0.5;exitY=1;exitDx=0;exitDy=0;" parent="yrDE9MnWZiMsTK1-ACAq-1" source="2QvLHBp84P5aui0mpsbR-0" target="2QvLHBp84P5aui0mpsbR-1" edge="1">
          <mxGeometry relative="1" as="geometry" />
        </mxCell>
        <mxCell id="2QvLHBp84P5aui0mpsbR-0" value="启动处理线程" style="rounded=1;whiteSpace=wrap;html=1;absoluteArcSize=1;arcSize=14;strokeWidth=2;align=center;" parent="yrDE9MnWZiMsTK1-ACAq-1" vertex="1">
          <mxGeometry x="364" y="310" width="100" height="40" as="geometry" />
        </mxCell>
        <mxCell id="2QvLHBp84P5aui0mpsbR-7" style="edgeStyle=orthogonalEdgeStyle;rounded=0;orthogonalLoop=1;jettySize=auto;html=1;exitX=0.5;exitY=1;exitDx=0;exitDy=0;entryX=0.5;entryY=0;entryDx=0;entryDy=0;" parent="yrDE9MnWZiMsTK1-ACAq-1" source="2QvLHBp84P5aui0mpsbR-1" target="2QvLHBp84P5aui0mpsbR-2" edge="1">
          <mxGeometry relative="1" as="geometry" />
        </mxCell>
        <mxCell id="2QvLHBp84P5aui0mpsbR-1" value="循环从待处理队列拿到处理任务" style="rounded=1;whiteSpace=wrap;html=1;absoluteArcSize=1;arcSize=14;strokeWidth=2;align=center;" parent="yrDE9MnWZiMsTK1-ACAq-1" vertex="1">
          <mxGeometry x="364" y="390" width="100" height="60" as="geometry" />
        </mxCell>
        <mxCell id="2QvLHBp84P5aui0mpsbR-3" style="edgeStyle=orthogonalEdgeStyle;rounded=0;orthogonalLoop=1;jettySize=auto;html=1;exitX=1;exitY=0.5;exitDx=0;exitDy=0;entryX=1;entryY=0.5;entryDx=0;entryDy=0;" parent="yrDE9MnWZiMsTK1-ACAq-1" source="2QvLHBp84P5aui0mpsbR-2" target="2QvLHBp84P5aui0mpsbR-1" edge="1">
          <mxGeometry relative="1" as="geometry">
            <Array as="points">
              <mxPoint x="510" y="520" />
              <mxPoint x="510" y="420" />
            </Array>
          </mxGeometry>
        </mxCell>
        <mxCell id="2QvLHBp84P5aui0mpsbR-4" value="NO" style="edgeLabel;html=1;align=center;verticalAlign=middle;resizable=0;points=[];" parent="2QvLHBp84P5aui0mpsbR-3" vertex="1" connectable="0">
          <mxGeometry x="-0.8059" relative="1" as="geometry">
            <mxPoint as="offset" />
          </mxGeometry>
        </mxCell>
        <mxCell id="2QvLHBp84P5aui0mpsbR-8" style="edgeStyle=orthogonalEdgeStyle;rounded=0;orthogonalLoop=1;jettySize=auto;html=1;exitX=0.5;exitY=1;exitDx=0;exitDy=0;entryX=0.5;entryY=0;entryDx=0;entryDy=0;" parent="yrDE9MnWZiMsTK1-ACAq-1" source="2QvLHBp84P5aui0mpsbR-2" target="2QvLHBp84P5aui0mpsbR-10" edge="1">
          <mxGeometry relative="1" as="geometry">
            <mxPoint x="450" y="600" as="targetPoint" />
          </mxGeometry>
        </mxCell>
        <mxCell id="2QvLHBp84P5aui0mpsbR-9" value="YES" style="edgeLabel;html=1;align=center;verticalAlign=middle;resizable=0;points=[];" parent="2QvLHBp84P5aui0mpsbR-8" vertex="1" connectable="0">
          <mxGeometry x="-0.2444" relative="1" as="geometry">
            <mxPoint as="offset" />
          </mxGeometry>
        </mxCell>
        <mxCell id="2QvLHBp84P5aui0mpsbR-2" value="是否拿到" style="rhombus;whiteSpace=wrap;html=1;align=center;" parent="yrDE9MnWZiMsTK1-ACAq-1" vertex="1">
          <mxGeometry x="374" y="480" width="80" height="80" as="geometry" />
        </mxCell>
        <mxCell id="2QvLHBp84P5aui0mpsbR-12" style="edgeStyle=orthogonalEdgeStyle;rounded=0;orthogonalLoop=1;jettySize=auto;html=1;exitX=0.5;exitY=1;exitDx=0;exitDy=0;entryX=0.5;entryY=0;entryDx=0;entryDy=0;" parent="yrDE9MnWZiMsTK1-ACAq-1" source="2QvLHBp84P5aui0mpsbR-10" target="2QvLHBp84P5aui0mpsbR-11" edge="1">
          <mxGeometry relative="1" as="geometry" />
        </mxCell>
        <mxCell id="2QvLHBp84P5aui0mpsbR-10" value="根据数据中Page的ProcessType通过HandleFactory创建对应的Handler" style="rounded=1;whiteSpace=wrap;html=1;absoluteArcSize=1;arcSize=14;strokeWidth=2;align=center;" parent="yrDE9MnWZiMsTK1-ACAq-1" vertex="1">
          <mxGeometry x="364" y="630" width="100" height="70" as="geometry" />
        </mxCell>
        <mxCell id="bVz-09k-kpOmvAMGX96p-1" style="edgeStyle=orthogonalEdgeStyle;rounded=0;orthogonalLoop=1;jettySize=auto;html=1;exitX=0.5;exitY=1;exitDx=0;exitDy=0;" parent="yrDE9MnWZiMsTK1-ACAq-1" source="2QvLHBp84P5aui0mpsbR-11" target="1NvMD0GdXN-p2Og60w8m-0" edge="1">
          <mxGeometry relative="1" as="geometry" />
        </mxCell>
        <mxCell id="2QvLHBp84P5aui0mpsbR-11" value="处理解析数据，&lt;br&gt;更新缓存。" style="rounded=1;whiteSpace=wrap;html=1;absoluteArcSize=1;arcSize=14;strokeWidth=2;align=center;" parent="yrDE9MnWZiMsTK1-ACAq-1" vertex="1">
          <mxGeometry x="363" y="750" width="102" height="50" as="geometry" />
        </mxCell>
        <mxCell id="bVz-09k-kpOmvAMGX96p-0" value="结束" style="strokeWidth=2;html=1;shape=mxgraph.flowchart.terminator;whiteSpace=wrap;align=center;" parent="yrDE9MnWZiMsTK1-ACAq-1" vertex="1">
          <mxGeometry x="364" y="1030" width="100" height="60" as="geometry" />
        </mxCell>
        <mxCell id="1NvMD0GdXN-p2Og60w8m-1" style="edgeStyle=orthogonalEdgeStyle;rounded=0;orthogonalLoop=1;jettySize=auto;html=1;exitX=0.5;exitY=1;exitDx=0;exitDy=0;entryX=0.5;entryY=0;entryDx=0;entryDy=0;entryPerimeter=0;" parent="yrDE9MnWZiMsTK1-ACAq-1" source="1NvMD0GdXN-p2Og60w8m-0" target="bVz-09k-kpOmvAMGX96p-0" edge="1">
          <mxGeometry relative="1" as="geometry" />
        </mxCell>
        <mxCell id="1NvMD0GdXN-p2Og60w8m-0" value="&lt;span&gt;解析中如果生成的新任务，通过PageManager添加，并通过WorkGroup指定工作组分配任务&lt;/span&gt;" style="rounded=1;whiteSpace=wrap;html=1;absoluteArcSize=1;arcSize=14;strokeWidth=2;" parent="yrDE9MnWZiMsTK1-ACAq-1" vertex="1">
          <mxGeometry x="339" y="880" width="150" height="80" as="geometry" />
        </mxCell>
      </root>
    </mxGraphModel>
  </diagram>
  <diagram id="ZlYufnJug33M6R4klXcg" name="资源数据模块">
    <mxGraphModel dx="1123" dy="608" grid="1" gridSize="10" guides="1" tooltips="1" connect="1" arrows="1" fold="1" page="1" pageScale="1" pageWidth="827" pageHeight="1169" math="0" shadow="0">
      <root>
        <mxCell id="fQatHUJ3hHxznCWviUpP-0" />
        <mxCell id="fQatHUJ3hHxznCWviUpP-1" parent="fQatHUJ3hHxznCWviUpP-0" />
        <mxCell id="Mns35HqkP70Kp56o8qyN-0" value="1、Page&lt;br&gt;2、Taker&lt;br&gt;3、Group" style="strokeWidth=2;html=1;shape=mxgraph.flowchart.document2;whiteSpace=wrap;size=0.25;align=left;" parent="fQatHUJ3hHxznCWviUpP-1" vertex="1">
          <mxGeometry x="30" y="40" width="100" height="60" as="geometry" />
        </mxCell>
        <mxCell id="xwJqx6TlAKKJtV6L__mv-18" value="TaskGroupDto" style="swimlane;fontStyle=1;align=center;verticalAlign=top;childLayout=stackLayout;horizontal=1;startSize=26;horizontalStack=0;resizeParent=1;resizeParentMax=0;resizeLast=0;collapsible=1;marginBottom=0;" parent="fQatHUJ3hHxznCWviUpP-1" vertex="1">
          <mxGeometry x="80" y="560" width="160" height="138" as="geometry" />
        </mxCell>
        <mxCell id="xwJqx6TlAKKJtV6L__mv-19" value="+ PageIDList: List&lt;int&gt;" style="text;strokeColor=none;fillColor=none;align=left;verticalAlign=top;spacingLeft=4;spacingRight=4;overflow=hidden;rotatable=0;points=[[0,0.5],[1,0.5]];portConstraint=eastwest;" parent="xwJqx6TlAKKJtV6L__mv-18" vertex="1">
          <mxGeometry y="26" width="160" height="26" as="geometry" />
        </mxCell>
        <mxCell id="xwJqx6TlAKKJtV6L__mv-20" value="" style="line;strokeWidth=1;fillColor=none;align=left;verticalAlign=middle;spacingTop=-1;spacingLeft=3;spacingRight=3;rotatable=0;labelPosition=right;points=[];portConstraint=eastwest;" parent="xwJqx6TlAKKJtV6L__mv-18" vertex="1">
          <mxGeometry y="52" width="160" height="8" as="geometry" />
        </mxCell>
        <mxCell id="xwJqx6TlAKKJtV6L__mv-21" value="+ Add(PageID): void" style="text;strokeColor=none;fillColor=none;align=left;verticalAlign=top;spacingLeft=4;spacingRight=4;overflow=hidden;rotatable=0;points=[[0,0.5],[1,0.5]];portConstraint=eastwest;" parent="xwJqx6TlAKKJtV6L__mv-18" vertex="1">
          <mxGeometry y="60" width="160" height="26" as="geometry" />
        </mxCell>
        <mxCell id="3Es4uWU18Xjm93qDSAdc-3" value="+ Remove(PageID): void" style="text;strokeColor=none;fillColor=none;align=left;verticalAlign=top;spacingLeft=4;spacingRight=4;overflow=hidden;rotatable=0;points=[[0,0.5],[1,0.5]];portConstraint=eastwest;" parent="xwJqx6TlAKKJtV6L__mv-18" vertex="1">
          <mxGeometry y="86" width="160" height="26" as="geometry" />
        </mxCell>
        <mxCell id="3Es4uWU18Xjm93qDSAdc-5" value="+ GetAllPage(): List&lt;int&gt;" style="text;strokeColor=none;fillColor=none;align=left;verticalAlign=top;spacingLeft=4;spacingRight=4;overflow=hidden;rotatable=0;points=[[0,0.5],[1,0.5]];portConstraint=eastwest;" parent="xwJqx6TlAKKJtV6L__mv-18" vertex="1">
          <mxGeometry y="112" width="160" height="26" as="geometry" />
        </mxCell>
        <mxCell id="xwJqx6TlAKKJtV6L__mv-30" value="TakeModeEnum" style="swimlane;fontStyle=1;align=center;verticalAlign=top;childLayout=stackLayout;horizontal=1;startSize=26;horizontalStack=0;resizeParent=1;resizeParentMax=0;resizeLast=0;collapsible=1;marginBottom=0;" parent="fQatHUJ3hHxznCWviUpP-1" vertex="1">
          <mxGeometry x="526.5" y="320" width="160" height="86" as="geometry" />
        </mxCell>
        <mxCell id="xwJqx6TlAKKJtV6L__mv-31" value="+ Pull: int" style="text;strokeColor=none;fillColor=none;align=left;verticalAlign=top;spacingLeft=4;spacingRight=4;overflow=hidden;rotatable=0;points=[[0,0.5],[1,0.5]];portConstraint=eastwest;" parent="xwJqx6TlAKKJtV6L__mv-30" vertex="1">
          <mxGeometry y="26" width="160" height="26" as="geometry" />
        </mxCell>
        <mxCell id="xwJqx6TlAKKJtV6L__mv-34" value="+ Push: int" style="text;strokeColor=none;fillColor=none;align=left;verticalAlign=top;spacingLeft=4;spacingRight=4;overflow=hidden;rotatable=0;points=[[0,0.5],[1,0.5]];portConstraint=eastwest;" parent="xwJqx6TlAKKJtV6L__mv-30" vertex="1">
          <mxGeometry y="52" width="160" height="26" as="geometry" />
        </mxCell>
        <mxCell id="xwJqx6TlAKKJtV6L__mv-32" value="" style="line;strokeWidth=1;fillColor=none;align=left;verticalAlign=middle;spacingTop=-1;spacingLeft=3;spacingRight=3;rotatable=0;labelPosition=right;points=[];portConstraint=eastwest;" parent="xwJqx6TlAKKJtV6L__mv-30" vertex="1">
          <mxGeometry y="78" width="160" height="8" as="geometry" />
        </mxCell>
        <mxCell id="uPOgUl6ajxGO3yY7tz4o-0" value="BaseUserParam" style="swimlane;fontStyle=1;align=center;verticalAlign=top;childLayout=stackLayout;horizontal=1;startSize=26;horizontalStack=0;resizeParent=1;resizeParentMax=0;resizeLast=0;collapsible=1;marginBottom=0;" parent="fQatHUJ3hHxznCWviUpP-1" vertex="1">
          <mxGeometry x="80" y="170" width="160" height="112" as="geometry" />
        </mxCell>
        <mxCell id="uPOgUl6ajxGO3yY7tz4o-1" value="+ UserName: string" style="text;strokeColor=none;fillColor=none;align=left;verticalAlign=top;spacingLeft=4;spacingRight=4;overflow=hidden;rotatable=0;points=[[0,0.5],[1,0.5]];portConstraint=eastwest;" parent="uPOgUl6ajxGO3yY7tz4o-0" vertex="1">
          <mxGeometry y="26" width="160" height="26" as="geometry" />
        </mxCell>
        <mxCell id="uPOgUl6ajxGO3yY7tz4o-4" value="+ Password: string" style="text;strokeColor=none;fillColor=none;align=left;verticalAlign=top;spacingLeft=4;spacingRight=4;overflow=hidden;rotatable=0;points=[[0,0.5],[1,0.5]];portConstraint=eastwest;" parent="uPOgUl6ajxGO3yY7tz4o-0" vertex="1">
          <mxGeometry y="52" width="160" height="26" as="geometry" />
        </mxCell>
        <mxCell id="uPOgUl6ajxGO3yY7tz4o-5" value="+ CustomIP: string" style="text;strokeColor=none;fillColor=none;align=left;verticalAlign=top;spacingLeft=4;spacingRight=4;overflow=hidden;rotatable=0;points=[[0,0.5],[1,0.5]];portConstraint=eastwest;" parent="uPOgUl6ajxGO3yY7tz4o-0" vertex="1">
          <mxGeometry y="78" width="160" height="26" as="geometry" />
        </mxCell>
        <mxCell id="uPOgUl6ajxGO3yY7tz4o-2" value="" style="line;strokeWidth=1;fillColor=none;align=left;verticalAlign=middle;spacingTop=-1;spacingLeft=3;spacingRight=3;rotatable=0;labelPosition=right;points=[];portConstraint=eastwest;" parent="uPOgUl6ajxGO3yY7tz4o-0" vertex="1">
          <mxGeometry y="104" width="160" height="8" as="geometry" />
        </mxCell>
        <mxCell id="7xsvFzni8uJfTJzoRvjp-0" value="&lt;p style=&quot;margin: 0px ; margin-top: 4px ; text-align: center&quot;&gt;&lt;i&gt;&amp;lt;&amp;lt;Interface&amp;gt;&amp;gt;&lt;/i&gt;&lt;br&gt;&lt;b&gt;IPage&lt;/b&gt;&lt;/p&gt;&lt;hr size=&quot;1&quot;&gt;&lt;p style=&quot;margin: 0px ; margin-left: 4px&quot;&gt;+&amp;nbsp;PageID: int&lt;br&gt;+&amp;nbsp;PageName: string&lt;br&gt;&lt;/p&gt;&lt;p style=&quot;margin: 0px ; margin-left: 4px&quot;&gt;+ ProcessType: int&lt;br&gt;&lt;/p&gt;&lt;p style=&quot;margin: 0px ; margin-left: 4px&quot;&gt;+ TaskList: List&amp;lt;ITask&amp;gt;&lt;br&gt;&lt;/p&gt;&lt;hr size=&quot;1&quot;&gt;&lt;p style=&quot;margin: 0px ; margin-left: 4px&quot;&gt;&lt;br&gt;&lt;/p&gt;" style="verticalAlign=top;align=left;overflow=fill;fontSize=12;fontFamily=Helvetica;html=1;" parent="fQatHUJ3hHxznCWviUpP-1" vertex="1">
          <mxGeometry x="90" y="320" width="190" height="120" as="geometry" />
        </mxCell>
        <mxCell id="7xsvFzni8uJfTJzoRvjp-1" value="&lt;p style=&quot;margin: 0px ; margin-top: 4px ; text-align: center&quot;&gt;&lt;i&gt;&amp;lt;&amp;lt;Interface&amp;gt;&amp;gt;&lt;/i&gt;&lt;br&gt;&lt;b&gt;ITask&lt;/b&gt;&lt;/p&gt;&lt;hr size=&quot;1&quot;&gt;&lt;p style=&quot;margin: 0px ; margin-left: 4px&quot;&gt;+ TaskID: string&lt;br&gt;+ TakeMode: TakeMode&lt;br&gt;&lt;/p&gt;&lt;hr size=&quot;1&quot;&gt;&lt;p style=&quot;margin: 0px ; margin-left: 4px&quot;&gt;&lt;br&gt;&lt;/p&gt;" style="verticalAlign=top;align=left;overflow=fill;fontSize=12;fontFamily=Helvetica;html=1;" parent="fQatHUJ3hHxznCWviUpP-1" vertex="1">
          <mxGeometry x="310" y="320" width="190" height="100" as="geometry" />
        </mxCell>
      </root>
    </mxGraphModel>
  </diagram>
  <diagram id="NOUKLftjASxk3G_ahTjO" name="中心模块">
    <mxGraphModel dx="1123" dy="608" grid="1" gridSize="10" guides="1" tooltips="1" connect="1" arrows="1" fold="1" page="1" pageScale="1" pageWidth="827" pageHeight="1169" math="0" shadow="0">
      <root>
        <mxCell id="nqg696YNSp6SZENWG5bZ-0" />
        <mxCell id="nqg696YNSp6SZENWG5bZ-1" parent="nqg696YNSp6SZENWG5bZ-0" />
        <mxCell id="X1qHnuWVGZ2KYBUfEmW2-0" value="1、WorkGroup" style="strokeWidth=2;html=1;shape=mxgraph.flowchart.document2;whiteSpace=wrap;size=0.25;align=left;" parent="nqg696YNSp6SZENWG5bZ-1" vertex="1">
          <mxGeometry x="20" y="140" width="100" height="60" as="geometry" />
        </mxCell>
        <mxCell id="qpNGrC1vAiLr2hB7hyIS-7" value="TakerManager" style="swimlane;fontStyle=1;align=center;verticalAlign=top;childLayout=stackLayout;horizontal=1;startSize=26;horizontalStack=0;resizeParent=1;resizeParentMax=0;resizeLast=0;collapsible=1;marginBottom=0;" parent="nqg696YNSp6SZENWG5bZ-1" vertex="1">
          <mxGeometry x="130" y="470" width="160" height="164" as="geometry" />
        </mxCell>
        <mxCell id="qpNGrC1vAiLr2hB7hyIS-8" value="+ TakerList: List&lt;Taker&gt;" style="text;strokeColor=none;fillColor=none;align=left;verticalAlign=top;spacingLeft=4;spacingRight=4;overflow=hidden;rotatable=0;points=[[0,0.5],[1,0.5]];portConstraint=eastwest;" parent="qpNGrC1vAiLr2hB7hyIS-7" vertex="1">
          <mxGeometry y="26" width="160" height="26" as="geometry" />
        </mxCell>
        <mxCell id="qpNGrC1vAiLr2hB7hyIS-9" value="" style="line;strokeWidth=1;fillColor=none;align=left;verticalAlign=middle;spacingTop=-1;spacingLeft=3;spacingRight=3;rotatable=0;labelPosition=right;points=[];portConstraint=eastwest;" parent="qpNGrC1vAiLr2hB7hyIS-7" vertex="1">
          <mxGeometry y="52" width="160" height="8" as="geometry" />
        </mxCell>
        <mxCell id="qpNGrC1vAiLr2hB7hyIS-10" value="+ Add(Taker): void" style="text;strokeColor=none;fillColor=none;align=left;verticalAlign=top;spacingLeft=4;spacingRight=4;overflow=hidden;rotatable=0;points=[[0,0.5],[1,0.5]];portConstraint=eastwest;" parent="qpNGrC1vAiLr2hB7hyIS-7" vertex="1">
          <mxGeometry y="60" width="160" height="26" as="geometry" />
        </mxCell>
        <mxCell id="qpNGrC1vAiLr2hB7hyIS-11" value="+ Remove(TakerID): void" style="text;strokeColor=none;fillColor=none;align=left;verticalAlign=top;spacingLeft=4;spacingRight=4;overflow=hidden;rotatable=0;points=[[0,0.5],[1,0.5]];portConstraint=eastwest;" parent="qpNGrC1vAiLr2hB7hyIS-7" vertex="1">
          <mxGeometry y="86" width="160" height="26" as="geometry" />
        </mxCell>
        <mxCell id="qpNGrC1vAiLr2hB7hyIS-12" value="+ Update(Taker): void" style="text;strokeColor=none;fillColor=none;align=left;verticalAlign=top;spacingLeft=4;spacingRight=4;overflow=hidden;rotatable=0;points=[[0,0.5],[1,0.5]];portConstraint=eastwest;" parent="qpNGrC1vAiLr2hB7hyIS-7" vertex="1">
          <mxGeometry y="112" width="160" height="26" as="geometry" />
        </mxCell>
        <mxCell id="qpNGrC1vAiLr2hB7hyIS-13" value="+ Get(TakerID): Taker" style="text;strokeColor=none;fillColor=none;align=left;verticalAlign=top;spacingLeft=4;spacingRight=4;overflow=hidden;rotatable=0;points=[[0,0.5],[1,0.5]];portConstraint=eastwest;" parent="qpNGrC1vAiLr2hB7hyIS-7" vertex="1">
          <mxGeometry y="138" width="160" height="26" as="geometry" />
        </mxCell>
        <mxCell id="01NCZbORCZcjmXi26T3A-0" value="WorkGroup" style="swimlane;fontStyle=1;align=center;verticalAlign=top;childLayout=stackLayout;horizontal=1;startSize=26;horizontalStack=0;resizeParent=1;resizeParentMax=0;resizeLast=0;collapsible=1;marginBottom=0;" parent="nqg696YNSp6SZENWG5bZ-1" vertex="1">
          <mxGeometry x="410" y="220" width="290" height="320" as="geometry" />
        </mxCell>
        <mxCell id="01NCZbORCZcjmXi26T3A-1" value="+ TaskGroup: TaskGroup" style="text;strokeColor=none;fillColor=none;align=left;verticalAlign=top;spacingLeft=4;spacingRight=4;overflow=hidden;rotatable=0;points=[[0,0.5],[1,0.5]];portConstraint=eastwest;" parent="01NCZbORCZcjmXi26T3A-0" vertex="1">
          <mxGeometry y="26" width="290" height="26" as="geometry" />
        </mxCell>
        <mxCell id="-35VWJ_OkW-9_9_tguPk-0" value="+ TakerManager: TakerManager" style="text;strokeColor=none;fillColor=none;align=left;verticalAlign=top;spacingLeft=4;spacingRight=4;overflow=hidden;rotatable=0;points=[[0,0.5],[1,0.5]];portConstraint=eastwest;" parent="01NCZbORCZcjmXi26T3A-0" vertex="1">
          <mxGeometry y="52" width="290" height="26" as="geometry" />
        </mxCell>
        <mxCell id="-35VWJ_OkW-9_9_tguPk-1" value="+ PageManager: PageManager" style="text;strokeColor=none;fillColor=none;align=left;verticalAlign=top;spacingLeft=4;spacingRight=4;overflow=hidden;rotatable=0;points=[[0,0.5],[1,0.5]];portConstraint=eastwest;" parent="01NCZbORCZcjmXi26T3A-0" vertex="1">
          <mxGeometry y="78" width="290" height="26" as="geometry" />
        </mxCell>
        <mxCell id="-35VWJ_OkW-9_9_tguPk-2" value="- TakeDataQueue: ConcurrentQueue&lt;BaseTakeData&gt;" style="text;strokeColor=none;fillColor=none;align=left;verticalAlign=top;spacingLeft=4;spacingRight=4;overflow=hidden;rotatable=0;points=[[0,0.5],[1,0.5]];portConstraint=eastwest;" parent="01NCZbORCZcjmXi26T3A-0" vertex="1">
          <mxGeometry y="104" width="290" height="26" as="geometry" />
        </mxCell>
        <mxCell id="-35VWJ_OkW-9_9_tguPk-3" value="- SchedulingThread: Thread" style="text;strokeColor=none;fillColor=none;align=left;verticalAlign=top;spacingLeft=4;spacingRight=4;overflow=hidden;rotatable=0;points=[[0,0.5],[1,0.5]];portConstraint=eastwest;" parent="01NCZbORCZcjmXi26T3A-0" vertex="1">
          <mxGeometry y="130" width="290" height="26" as="geometry" />
        </mxCell>
        <mxCell id="5bGOXjT1GU_9L6Q519MS-0" value="- ProcessDataThread: Thread" style="text;strokeColor=none;fillColor=none;align=left;verticalAlign=top;spacingLeft=4;spacingRight=4;overflow=hidden;rotatable=0;points=[[0,0.5],[1,0.5]];portConstraint=eastwest;" parent="01NCZbORCZcjmXi26T3A-0" vertex="1">
          <mxGeometry y="156" width="290" height="26" as="geometry" />
        </mxCell>
        <mxCell id="01NCZbORCZcjmXi26T3A-2" value="" style="line;strokeWidth=1;fillColor=none;align=left;verticalAlign=middle;spacingTop=-1;spacingLeft=3;spacingRight=3;rotatable=0;labelPosition=right;points=[];portConstraint=eastwest;" parent="01NCZbORCZcjmXi26T3A-0" vertex="1">
          <mxGeometry y="182" width="290" height="8" as="geometry" />
        </mxCell>
        <mxCell id="01NCZbORCZcjmXi26T3A-3" value="+ Init(reptile): void" style="text;strokeColor=none;fillColor=none;align=left;verticalAlign=top;spacingLeft=4;spacingRight=4;overflow=hidden;rotatable=0;points=[[0,0.5],[1,0.5]];portConstraint=eastwest;" parent="01NCZbORCZcjmXi26T3A-0" vertex="1">
          <mxGeometry y="190" width="290" height="26" as="geometry" />
        </mxCell>
        <mxCell id="eiB_70Jou0E-x_jeSClb-1" value="+ Start(): void" style="text;strokeColor=none;fillColor=none;align=left;verticalAlign=top;spacingLeft=4;spacingRight=4;overflow=hidden;rotatable=0;points=[[0,0.5],[1,0.5]];portConstraint=eastwest;" parent="01NCZbORCZcjmXi26T3A-0" vertex="1">
          <mxGeometry y="216" width="290" height="26" as="geometry" />
        </mxCell>
        <mxCell id="eiB_70Jou0E-x_jeSClb-2" value="+ Stop(): void" style="text;strokeColor=none;fillColor=none;align=left;verticalAlign=top;spacingLeft=4;spacingRight=4;overflow=hidden;rotatable=0;points=[[0,0.5],[1,0.5]];portConstraint=eastwest;" parent="01NCZbORCZcjmXi26T3A-0" vertex="1">
          <mxGeometry y="242" width="290" height="26" as="geometry" />
        </mxCell>
        <mxCell id="687hmgJ-y-mPtQ10c2Pf-0" value="+ AddHotTask(pageID): void" style="text;strokeColor=none;fillColor=none;align=left;verticalAlign=top;spacingLeft=4;spacingRight=4;overflow=hidden;rotatable=0;points=[[0,0.5],[1,0.5]];portConstraint=eastwest;" parent="01NCZbORCZcjmXi26T3A-0" vertex="1">
          <mxGeometry y="268" width="290" height="26" as="geometry" />
        </mxCell>
        <mxCell id="CgC7wPJE-YUdri3aOzCJ-0" value="+ RemoveHotTask(pageID): void" style="text;strokeColor=none;fillColor=none;align=left;verticalAlign=top;spacingLeft=4;spacingRight=4;overflow=hidden;rotatable=0;points=[[0,0.5],[1,0.5]];portConstraint=eastwest;" parent="01NCZbORCZcjmXi26T3A-0" vertex="1">
          <mxGeometry y="294" width="290" height="26" as="geometry" />
        </mxCell>
        <mxCell id="ILJ-WJk6fNwaleJXnDkH-5" value="BaseTakeData" style="swimlane;fontStyle=1;align=center;verticalAlign=top;childLayout=stackLayout;horizontal=1;startSize=26;horizontalStack=0;resizeParent=1;resizeParentMax=0;resizeLast=0;collapsible=1;marginBottom=0;" parent="nqg696YNSp6SZENWG5bZ-1" vertex="1">
          <mxGeometry x="785" y="220" width="160" height="86" as="geometry" />
        </mxCell>
        <mxCell id="ILJ-WJk6fNwaleJXnDkH-6" value="+ Page: IPage" style="text;strokeColor=none;fillColor=none;align=left;verticalAlign=top;spacingLeft=4;spacingRight=4;overflow=hidden;rotatable=0;points=[[0,0.5],[1,0.5]];portConstraint=eastwest;" parent="ILJ-WJk6fNwaleJXnDkH-5" vertex="1">
          <mxGeometry y="26" width="160" height="26" as="geometry" />
        </mxCell>
        <mxCell id="rdO0I7AqC3YIJtFM7yeg-0" value="+ SrcData: ISrcData" style="text;strokeColor=none;fillColor=none;align=left;verticalAlign=top;spacingLeft=4;spacingRight=4;overflow=hidden;rotatable=0;points=[[0,0.5],[1,0.5]];portConstraint=eastwest;" parent="ILJ-WJk6fNwaleJXnDkH-5" vertex="1">
          <mxGeometry y="52" width="160" height="26" as="geometry" />
        </mxCell>
        <mxCell id="ILJ-WJk6fNwaleJXnDkH-7" value="" style="line;strokeWidth=1;fillColor=none;align=left;verticalAlign=middle;spacingTop=-1;spacingLeft=3;spacingRight=3;rotatable=0;labelPosition=right;points=[];portConstraint=eastwest;" parent="ILJ-WJk6fNwaleJXnDkH-5" vertex="1">
          <mxGeometry y="78" width="160" height="8" as="geometry" />
        </mxCell>
        <mxCell id="rdO0I7AqC3YIJtFM7yeg-1" value="&lt;p style=&quot;margin: 0px ; margin-top: 4px ; text-align: center&quot;&gt;&lt;i&gt;&amp;lt;&amp;lt;Interface&amp;gt;&amp;gt;&lt;/i&gt;&lt;br&gt;&lt;b&gt;ISrcData&lt;/b&gt;&lt;br&gt;&lt;/p&gt;&lt;hr size=&quot;1&quot;&gt;&lt;p style=&quot;margin: 0px ; margin-left: 4px&quot;&gt;+ IsNormal: bool&lt;br&gt;+ IsUpdate: bool&lt;/p&gt;&lt;p style=&quot;margin: 0px ; margin-left: 4px&quot;&gt;+&amp;nbsp;Data:string&lt;/p&gt;&lt;hr size=&quot;1&quot;&gt;&lt;p style=&quot;margin: 0px ; margin-left: 4px&quot;&gt;&lt;br&gt;&lt;/p&gt;" style="verticalAlign=top;align=left;overflow=fill;fontSize=12;fontFamily=Helvetica;html=1;" parent="nqg696YNSp6SZENWG5bZ-1" vertex="1">
          <mxGeometry x="770" y="330" width="190" height="100" as="geometry" />
        </mxCell>
        <mxCell id="msAJ9hJ_i76To8OymBvD-0" value="PageManger" style="swimlane;fontStyle=1;align=center;verticalAlign=top;childLayout=stackLayout;horizontal=1;startSize=26;horizontalStack=0;resizeParent=1;resizeParentMax=0;resizeLast=0;collapsible=1;marginBottom=0;" parent="nqg696YNSp6SZENWG5bZ-1" vertex="1">
          <mxGeometry x="130" y="230" width="180" height="164" as="geometry" />
        </mxCell>
        <mxCell id="msAJ9hJ_i76To8OymBvD-1" value="+ PageList: List&lt;IPage&gt;" style="text;strokeColor=none;fillColor=none;align=left;verticalAlign=top;spacingLeft=4;spacingRight=4;overflow=hidden;rotatable=0;points=[[0,0.5],[1,0.5]];portConstraint=eastwest;" parent="msAJ9hJ_i76To8OymBvD-0" vertex="1">
          <mxGeometry y="26" width="180" height="26" as="geometry" />
        </mxCell>
        <mxCell id="msAJ9hJ_i76To8OymBvD-2" value="" style="line;strokeWidth=1;fillColor=none;align=left;verticalAlign=middle;spacingTop=-1;spacingLeft=3;spacingRight=3;rotatable=0;labelPosition=right;points=[];portConstraint=eastwest;" parent="msAJ9hJ_i76To8OymBvD-0" vertex="1">
          <mxGeometry y="52" width="180" height="8" as="geometry" />
        </mxCell>
        <mxCell id="msAJ9hJ_i76To8OymBvD-3" value="+ Add(Page): void" style="text;strokeColor=none;fillColor=none;align=left;verticalAlign=top;spacingLeft=4;spacingRight=4;overflow=hidden;rotatable=0;points=[[0,0.5],[1,0.5]];portConstraint=eastwest;" parent="msAJ9hJ_i76To8OymBvD-0" vertex="1">
          <mxGeometry y="60" width="180" height="26" as="geometry" />
        </mxCell>
        <mxCell id="msAJ9hJ_i76To8OymBvD-4" value="+ Remove(PageID): void" style="text;strokeColor=none;fillColor=none;align=left;verticalAlign=top;spacingLeft=4;spacingRight=4;overflow=hidden;rotatable=0;points=[[0,0.5],[1,0.5]];portConstraint=eastwest;" parent="msAJ9hJ_i76To8OymBvD-0" vertex="1">
          <mxGeometry y="86" width="180" height="26" as="geometry" />
        </mxCell>
        <mxCell id="msAJ9hJ_i76To8OymBvD-5" value="+ Update(Page): void" style="text;strokeColor=none;fillColor=none;align=left;verticalAlign=top;spacingLeft=4;spacingRight=4;overflow=hidden;rotatable=0;points=[[0,0.5],[1,0.5]];portConstraint=eastwest;" parent="msAJ9hJ_i76To8OymBvD-0" vertex="1">
          <mxGeometry y="112" width="180" height="26" as="geometry" />
        </mxCell>
        <mxCell id="msAJ9hJ_i76To8OymBvD-6" value="+ Get(PageID): IPage" style="text;strokeColor=none;fillColor=none;align=left;verticalAlign=top;spacingLeft=4;spacingRight=4;overflow=hidden;rotatable=0;points=[[0,0.5],[1,0.5]];portConstraint=eastwest;" parent="msAJ9hJ_i76To8OymBvD-0" vertex="1">
          <mxGeometry y="138" width="180" height="26" as="geometry" />
        </mxCell>
        <mxCell id="56tgo0-KWTRuaTRT1Tye-8" value="1、Reptile&lt;br&gt;2、ICommunicator" style="strokeWidth=2;html=1;shape=mxgraph.flowchart.document2;whiteSpace=wrap;size=0.25;align=left;" vertex="1" parent="nqg696YNSp6SZENWG5bZ-1">
          <mxGeometry x="20" y="720" width="130" height="60" as="geometry" />
        </mxCell>
        <mxCell id="56tgo0-KWTRuaTRT1Tye-9" value="Reptile" style="swimlane;fontStyle=1;align=center;verticalAlign=top;childLayout=stackLayout;horizontal=1;startSize=26;horizontalStack=0;resizeParent=1;resizeParentMax=0;resizeLast=0;collapsible=1;marginBottom=0;" vertex="1" parent="nqg696YNSp6SZENWG5bZ-1">
          <mxGeometry x="80" y="910" width="200" height="138" as="geometry" />
        </mxCell>
        <mxCell id="56tgo0-KWTRuaTRT1Tye-10" value="- WorkGroupList: List&lt;WorkGroup&gt;" style="text;strokeColor=none;fillColor=none;align=left;verticalAlign=top;spacingLeft=4;spacingRight=4;overflow=hidden;rotatable=0;points=[[0,0.5],[1,0.5]];portConstraint=eastwest;" vertex="1" parent="56tgo0-KWTRuaTRT1Tye-9">
          <mxGeometry y="26" width="200" height="26" as="geometry" />
        </mxCell>
        <mxCell id="56tgo0-KWTRuaTRT1Tye-11" value="" style="line;strokeWidth=1;fillColor=none;align=left;verticalAlign=middle;spacingTop=-1;spacingLeft=3;spacingRight=3;rotatable=0;labelPosition=right;points=[];portConstraint=eastwest;" vertex="1" parent="56tgo0-KWTRuaTRT1Tye-9">
          <mxGeometry y="52" width="200" height="8" as="geometry" />
        </mxCell>
        <mxCell id="56tgo0-KWTRuaTRT1Tye-12" value="+ Init(WorkGroupList): void" style="text;strokeColor=none;fillColor=none;align=left;verticalAlign=top;spacingLeft=4;spacingRight=4;overflow=hidden;rotatable=0;points=[[0,0.5],[1,0.5]];portConstraint=eastwest;" vertex="1" parent="56tgo0-KWTRuaTRT1Tye-9">
          <mxGeometry y="60" width="200" height="26" as="geometry" />
        </mxCell>
        <mxCell id="56tgo0-KWTRuaTRT1Tye-13" value="+ Start(): void" style="text;strokeColor=none;fillColor=none;align=left;verticalAlign=top;spacingLeft=4;spacingRight=4;overflow=hidden;rotatable=0;points=[[0,0.5],[1,0.5]];portConstraint=eastwest;" vertex="1" parent="56tgo0-KWTRuaTRT1Tye-9">
          <mxGeometry y="86" width="200" height="26" as="geometry" />
        </mxCell>
        <mxCell id="56tgo0-KWTRuaTRT1Tye-14" value="+ Stop(): void" style="text;strokeColor=none;fillColor=none;align=left;verticalAlign=top;spacingLeft=4;spacingRight=4;overflow=hidden;rotatable=0;points=[[0,0.5],[1,0.5]];portConstraint=eastwest;" vertex="1" parent="56tgo0-KWTRuaTRT1Tye-9">
          <mxGeometry y="112" width="200" height="26" as="geometry" />
        </mxCell>
        <mxCell id="56tgo0-KWTRuaTRT1Tye-15" value="&lt;p style=&quot;margin: 0px ; margin-top: 4px ; text-align: center&quot;&gt;&lt;i&gt;&amp;lt;&amp;lt;Interface&amp;gt;&amp;gt;&lt;/i&gt;&lt;br&gt;&lt;b&gt;ICommunicator&lt;/b&gt;&lt;br&gt;&lt;/p&gt;&lt;hr size=&quot;1&quot;&gt;&lt;p style=&quot;margin: 0px ; margin-left: 4px&quot;&gt;&lt;br&gt;&lt;/p&gt;&lt;hr size=&quot;1&quot;&gt;&lt;p style=&quot;margin: 0px ; margin-left: 4px&quot;&gt;+ Send(data): void&lt;/p&gt;" style="verticalAlign=top;align=left;overflow=fill;fontSize=12;fontFamily=Helvetica;html=1;" vertex="1" parent="nqg696YNSp6SZENWG5bZ-1">
          <mxGeometry x="370" y="910" width="190" height="100" as="geometry" />
        </mxCell>
      </root>
    </mxGraphModel>
  </diagram>
  <diagram id="z2BpX7JTNwo3XKbY8ERh" name="数据获取模块">
    <mxGraphModel dx="1123" dy="608" grid="1" gridSize="10" guides="1" tooltips="1" connect="1" arrows="1" fold="1" page="1" pageScale="1" pageWidth="827" pageHeight="1169" math="0" shadow="0">
      <root>
        <mxCell id="QQ8oFt1lDWb44IIBywLt-0" />
        <mxCell id="QQ8oFt1lDWb44IIBywLt-1" parent="QQ8oFt1lDWb44IIBywLt-0" />
        <mxCell id="QQ8oFt1lDWb44IIBywLt-2" value="1、Taker" style="strokeWidth=2;html=1;shape=mxgraph.flowchart.document2;whiteSpace=wrap;size=0.25;align=left;" parent="QQ8oFt1lDWb44IIBywLt-1" vertex="1">
          <mxGeometry x="70" y="40" width="100" height="60" as="geometry" />
        </mxCell>
        <mxCell id="xvx4VN1zO1RpjN4dLV0T-0" value="Taker" style="swimlane;fontStyle=1;align=center;verticalAlign=top;childLayout=stackLayout;horizontal=1;startSize=26;horizontalStack=0;resizeParent=1;resizeParentMax=0;resizeLast=0;collapsible=1;marginBottom=0;" parent="QQ8oFt1lDWb44IIBywLt-1" vertex="1">
          <mxGeometry x="210" y="170" width="220" height="320" as="geometry" />
        </mxCell>
        <mxCell id="xvx4VN1zO1RpjN4dLV0T-1" value="+ TakerID: int" style="text;strokeColor=none;fillColor=none;align=left;verticalAlign=top;spacingLeft=4;spacingRight=4;overflow=hidden;rotatable=0;points=[[0,0.5],[1,0.5]];portConstraint=eastwest;" parent="xvx4VN1zO1RpjN4dLV0T-0" vertex="1">
          <mxGeometry y="26" width="220" height="26" as="geometry" />
        </mxCell>
        <mxCell id="xvx4VN1zO1RpjN4dLV0T-2" value="+ RenterName: string" style="text;strokeColor=none;fillColor=none;align=left;verticalAlign=top;spacingLeft=4;spacingRight=4;overflow=hidden;rotatable=0;points=[[0,0.5],[1,0.5]];portConstraint=eastwest;" parent="xvx4VN1zO1RpjN4dLV0T-0" vertex="1">
          <mxGeometry y="52" width="220" height="26" as="geometry" />
        </mxCell>
        <mxCell id="xvx4VN1zO1RpjN4dLV0T-3" value="+ UserParam: BaseUserParam" style="text;strokeColor=none;fillColor=none;align=left;verticalAlign=top;spacingLeft=4;spacingRight=4;overflow=hidden;rotatable=0;points=[[0,0.5],[1,0.5]];portConstraint=eastwest;" parent="xvx4VN1zO1RpjN4dLV0T-0" vertex="1">
          <mxGeometry y="78" width="220" height="26" as="geometry" />
        </mxCell>
        <mxCell id="xvx4VN1zO1RpjN4dLV0T-4" value="+ LoginArg: LoginItem" style="text;strokeColor=none;fillColor=none;align=left;verticalAlign=top;spacingLeft=4;spacingRight=4;overflow=hidden;rotatable=0;points=[[0,0.5],[1,0.5]];portConstraint=eastwest;" parent="xvx4VN1zO1RpjN4dLV0T-0" vertex="1">
          <mxGeometry y="104" width="220" height="26" as="geometry" />
        </mxCell>
        <mxCell id="xvx4VN1zO1RpjN4dLV0T-5" value="+ LoginResult: LoginResult" style="text;strokeColor=none;fillColor=none;align=left;verticalAlign=top;spacingLeft=4;spacingRight=4;overflow=hidden;rotatable=0;points=[[0,0.5],[1,0.5]];portConstraint=eastwest;" parent="xvx4VN1zO1RpjN4dLV0T-0" vertex="1">
          <mxGeometry y="130" width="220" height="26" as="geometry" />
        </mxCell>
        <mxCell id="xvx4VN1zO1RpjN4dLV0T-6" value="+ AccountLoginStatus: AccountLoginStatus" style="text;strokeColor=none;fillColor=none;align=left;verticalAlign=top;spacingLeft=4;spacingRight=4;overflow=hidden;rotatable=0;points=[[0,0.5],[1,0.5]];portConstraint=eastwest;" parent="xvx4VN1zO1RpjN4dLV0T-0" vertex="1">
          <mxGeometry y="156" width="220" height="26" as="geometry" />
        </mxCell>
        <mxCell id="xvx4VN1zO1RpjN4dLV0T-7" value="+ TakerWorkStatusEnum: TakerWorkStatusEnum" style="text;strokeColor=none;fillColor=none;align=left;verticalAlign=top;spacingLeft=4;spacingRight=4;overflow=hidden;rotatable=0;points=[[0,0.5],[1,0.5]];portConstraint=eastwest;" parent="xvx4VN1zO1RpjN4dLV0T-0" vertex="1">
          <mxGeometry y="182" width="220" height="26" as="geometry" />
        </mxCell>
        <mxCell id="14tBAI1s6y_ilSBy4KmZ-0" value="- PageList: List&lt;IPage&gt;" style="text;strokeColor=none;fillColor=none;align=left;verticalAlign=top;spacingLeft=4;spacingRight=4;overflow=hidden;rotatable=0;points=[[0,0.5],[1,0.5]];portConstraint=eastwest;" parent="xvx4VN1zO1RpjN4dLV0T-0" vertex="1">
          <mxGeometry y="208" width="220" height="26" as="geometry" />
        </mxCell>
        <mxCell id="xvx4VN1zO1RpjN4dLV0T-9" value="" style="line;strokeWidth=1;fillColor=none;align=left;verticalAlign=middle;spacingTop=-1;spacingLeft=3;spacingRight=3;rotatable=0;labelPosition=right;points=[];portConstraint=eastwest;" parent="xvx4VN1zO1RpjN4dLV0T-0" vertex="1">
          <mxGeometry y="234" width="220" height="8" as="geometry" />
        </mxCell>
        <mxCell id="xvx4VN1zO1RpjN4dLV0T-10" value="+ Login(): bool" style="text;strokeColor=none;fillColor=none;align=left;verticalAlign=top;spacingLeft=4;spacingRight=4;overflow=hidden;rotatable=0;points=[[0,0.5],[1,0.5]];portConstraint=eastwest;" parent="xvx4VN1zO1RpjN4dLV0T-0" vertex="1">
          <mxGeometry y="242" width="220" height="26" as="geometry" />
        </mxCell>
        <mxCell id="xvx4VN1zO1RpjN4dLV0T-11" value="+ AssignWorkTasks(IPage): void" style="text;strokeColor=none;fillColor=none;align=left;verticalAlign=top;spacingLeft=4;spacingRight=4;overflow=hidden;rotatable=0;points=[[0,0.5],[1,0.5]];portConstraint=eastwest;" parent="xvx4VN1zO1RpjN4dLV0T-0" vertex="1">
          <mxGeometry y="268" width="220" height="26" as="geometry" />
        </mxCell>
        <mxCell id="xvx4VN1zO1RpjN4dLV0T-12" value="+ ChangeUserParam(BaseUserParam): void" style="text;strokeColor=none;fillColor=none;align=left;verticalAlign=top;spacingLeft=4;spacingRight=4;overflow=hidden;rotatable=0;points=[[0,0.5],[1,0.5]];portConstraint=eastwest;" parent="xvx4VN1zO1RpjN4dLV0T-0" vertex="1">
          <mxGeometry y="294" width="220" height="26" as="geometry" />
        </mxCell>
        <mxCell id="xvx4VN1zO1RpjN4dLV0T-13" value="TakerWorkStatusEnum" style="swimlane;fontStyle=1;align=center;verticalAlign=top;childLayout=stackLayout;horizontal=1;startSize=26;horizontalStack=0;resizeParent=1;resizeParentMax=0;resizeLast=0;collapsible=1;marginBottom=0;" parent="QQ8oFt1lDWb44IIBywLt-1" vertex="1">
          <mxGeometry x="480" y="170" width="160" height="112" as="geometry" />
        </mxCell>
        <mxCell id="xvx4VN1zO1RpjN4dLV0T-14" value="+ NotUse: int" style="text;strokeColor=none;fillColor=none;align=left;verticalAlign=top;spacingLeft=4;spacingRight=4;overflow=hidden;rotatable=0;points=[[0,0.5],[1,0.5]];portConstraint=eastwest;" parent="xvx4VN1zO1RpjN4dLV0T-13" vertex="1">
          <mxGeometry y="26" width="160" height="26" as="geometry" />
        </mxCell>
        <mxCell id="xvx4VN1zO1RpjN4dLV0T-15" value="+ Using: int" style="text;strokeColor=none;fillColor=none;align=left;verticalAlign=top;spacingLeft=4;spacingRight=4;overflow=hidden;rotatable=0;points=[[0,0.5],[1,0.5]];portConstraint=eastwest;" parent="xvx4VN1zO1RpjN4dLV0T-13" vertex="1">
          <mxGeometry y="52" width="160" height="26" as="geometry" />
        </mxCell>
        <mxCell id="xvx4VN1zO1RpjN4dLV0T-16" value="+ Resting: int" style="text;strokeColor=none;fillColor=none;align=left;verticalAlign=top;spacingLeft=4;spacingRight=4;overflow=hidden;rotatable=0;points=[[0,0.5],[1,0.5]];portConstraint=eastwest;" parent="xvx4VN1zO1RpjN4dLV0T-13" vertex="1">
          <mxGeometry y="78" width="160" height="26" as="geometry" />
        </mxCell>
        <mxCell id="xvx4VN1zO1RpjN4dLV0T-17" value="" style="line;strokeWidth=1;fillColor=none;align=left;verticalAlign=middle;spacingTop=-1;spacingLeft=3;spacingRight=3;rotatable=0;labelPosition=right;points=[];portConstraint=eastwest;" parent="xvx4VN1zO1RpjN4dLV0T-13" vertex="1">
          <mxGeometry y="104" width="160" height="8" as="geometry" />
        </mxCell>
        <mxCell id="xvx4VN1zO1RpjN4dLV0T-18" value="AccountLoginStatusEnum" style="swimlane;fontStyle=1;align=center;verticalAlign=top;childLayout=stackLayout;horizontal=1;startSize=26;horizontalStack=0;resizeParent=1;resizeParentMax=0;resizeLast=0;collapsible=1;marginBottom=0;" parent="QQ8oFt1lDWb44IIBywLt-1" vertex="1">
          <mxGeometry x="730" y="170" width="160" height="138" as="geometry" />
        </mxCell>
        <mxCell id="xvx4VN1zO1RpjN4dLV0T-19" value="+ NotLogin: int" style="text;strokeColor=none;fillColor=none;align=left;verticalAlign=top;spacingLeft=4;spacingRight=4;overflow=hidden;rotatable=0;points=[[0,0.5],[1,0.5]];portConstraint=eastwest;" parent="xvx4VN1zO1RpjN4dLV0T-18" vertex="1">
          <mxGeometry y="26" width="160" height="26" as="geometry" />
        </mxCell>
        <mxCell id="xvx4VN1zO1RpjN4dLV0T-20" value="+ Logining: int" style="text;strokeColor=none;fillColor=none;align=left;verticalAlign=top;spacingLeft=4;spacingRight=4;overflow=hidden;rotatable=0;points=[[0,0.5],[1,0.5]];portConstraint=eastwest;" parent="xvx4VN1zO1RpjN4dLV0T-18" vertex="1">
          <mxGeometry y="52" width="160" height="26" as="geometry" />
        </mxCell>
        <mxCell id="xvx4VN1zO1RpjN4dLV0T-21" value="+ Success: int" style="text;strokeColor=none;fillColor=none;align=left;verticalAlign=top;spacingLeft=4;spacingRight=4;overflow=hidden;rotatable=0;points=[[0,0.5],[1,0.5]];portConstraint=eastwest;" parent="xvx4VN1zO1RpjN4dLV0T-18" vertex="1">
          <mxGeometry y="78" width="160" height="26" as="geometry" />
        </mxCell>
        <mxCell id="xvx4VN1zO1RpjN4dLV0T-22" value="+ Invalid: int" style="text;strokeColor=none;fillColor=none;align=left;verticalAlign=top;spacingLeft=4;spacingRight=4;overflow=hidden;rotatable=0;points=[[0,0.5],[1,0.5]];portConstraint=eastwest;" parent="xvx4VN1zO1RpjN4dLV0T-18" vertex="1">
          <mxGeometry y="104" width="160" height="26" as="geometry" />
        </mxCell>
        <mxCell id="xvx4VN1zO1RpjN4dLV0T-23" value="" style="line;strokeWidth=1;fillColor=none;align=left;verticalAlign=middle;spacingTop=-1;spacingLeft=3;spacingRight=3;rotatable=0;labelPosition=right;points=[];portConstraint=eastwest;" parent="xvx4VN1zO1RpjN4dLV0T-18" vertex="1">
          <mxGeometry y="130" width="160" height="8" as="geometry" />
        </mxCell>
        <mxCell id="14tBAI1s6y_ilSBy4KmZ-1" value="&lt;p style=&quot;margin: 0px ; margin-top: 4px ; text-align: center&quot;&gt;&lt;i&gt;&amp;lt;&amp;lt;Interface&amp;gt;&amp;gt;&lt;/i&gt;&lt;br&gt;&lt;b&gt;IPushTaker&lt;/b&gt;&lt;/p&gt;&lt;hr size=&quot;1&quot;&gt;&lt;p style=&quot;margin: 0px ; margin-left: 4px&quot;&gt;+ WebSocketUrl:string&lt;/p&gt;&lt;p style=&quot;margin: 0px ; margin-left: 4px&quot;&gt;+ OnOpen:EventHandler&amp;nbsp;&lt;br&gt;+ OnMessage: EventHandler&amp;lt;MessageEventArgs&amp;gt;&lt;/p&gt;&lt;p style=&quot;margin: 0px ; margin-left: 4px&quot;&gt;+&amp;nbsp;OnError:EventHandler&amp;lt;ErrorEventArgs&amp;gt;&lt;/p&gt;&lt;p style=&quot;margin: 0px ; margin-left: 4px&quot;&gt;+&amp;nbsp;OnClose:EventHandler&amp;lt;CloseEventArgs&amp;gt;&lt;/p&gt;&lt;p style=&quot;margin: 0px ; margin-left: 4px&quot;&gt;&lt;br&gt;&lt;/p&gt;&lt;hr size=&quot;1&quot;&gt;&lt;p style=&quot;margin: 0px ; margin-left: 4px&quot;&gt;+ Connect(): void&lt;br&gt;+ Close(): void&lt;/p&gt;&lt;p style=&quot;margin: 0px ; margin-left: 4px&quot;&gt;+ Send(): void&lt;/p&gt;" style="verticalAlign=top;align=left;overflow=fill;fontSize=12;fontFamily=Helvetica;html=1;" parent="QQ8oFt1lDWb44IIBywLt-1" vertex="1">
          <mxGeometry x="210" y="690" width="250" height="220" as="geometry" />
        </mxCell>
        <mxCell id="14tBAI1s6y_ilSBy4KmZ-2" value="&lt;p style=&quot;margin: 0px ; margin-top: 4px ; text-align: center&quot;&gt;&lt;i&gt;&amp;lt;&amp;lt;Interface&amp;gt;&amp;gt;&lt;/i&gt;&lt;br&gt;&lt;b&gt;IPullTaker&lt;/b&gt;&lt;/p&gt;&lt;hr size=&quot;1&quot;&gt;&lt;p style=&quot;margin: 0px ; margin-left: 4px&quot;&gt;+ IndexUrl: string&lt;/p&gt;&lt;hr size=&quot;1&quot;&gt;&lt;p style=&quot;margin: 0px ; margin-left: 4px&quot;&gt;+ RequestPage(url,arg,method): string&lt;br&gt;+ RequestPageAsync(url,arg,method): Task&amp;lt;string&amp;gt;&lt;/p&gt;" style="verticalAlign=top;align=left;overflow=fill;fontSize=12;fontFamily=Helvetica;html=1;" parent="QQ8oFt1lDWb44IIBywLt-1" vertex="1">
          <mxGeometry x="210" y="540" width="270" height="110" as="geometry" />
        </mxCell>
      </root>
    </mxGraphModel>
  </diagram>
  <diagram id="sWl388n82QDrikriRkQj" name="数据处理模块">
    <mxGraphModel dx="1123" dy="608" grid="1" gridSize="10" guides="1" tooltips="1" connect="1" arrows="1" fold="1" page="1" pageScale="1" pageWidth="827" pageHeight="1169" math="0" shadow="0">
      <root>
        <mxCell id="L653W54Cs_ECwklM5z4t-0" />
        <mxCell id="L653W54Cs_ECwklM5z4t-1" parent="L653W54Cs_ECwklM5z4t-0" />
        <mxCell id="3MUeG2O6IpLX6lvYazfW-0" value="1、HandleFactory&lt;br&gt;&lt;div style=&quot;text-align: left&quot;&gt;&lt;span&gt;2、Handler&lt;/span&gt;&lt;/div&gt;" style="strokeWidth=2;html=1;shape=mxgraph.flowchart.document2;whiteSpace=wrap;size=0.25;" parent="L653W54Cs_ECwklM5z4t-1" vertex="1">
          <mxGeometry x="90" y="80" width="100" height="60" as="geometry" />
        </mxCell>
        <mxCell id="AFCioiLbU9KBHhBKSbTq-0" value="&lt;p style=&quot;margin: 0px ; margin-top: 4px ; text-align: center&quot;&gt;&lt;i&gt;&amp;lt;&amp;lt;Interface&amp;gt;&amp;gt;&lt;/i&gt;&lt;br&gt;&lt;b&gt;IHandleFactory&lt;/b&gt;&lt;br&gt;&lt;/p&gt;&lt;hr size=&quot;1&quot;&gt;&lt;p style=&quot;margin: 0px ; margin-left: 4px&quot;&gt;&lt;br&gt;&lt;/p&gt;&lt;hr size=&quot;1&quot;&gt;&lt;p style=&quot;margin: 0px ; margin-left: 4px&quot;&gt;+ CreateHandle(processType): IHandle&lt;/p&gt;" style="verticalAlign=top;align=left;overflow=fill;fontSize=12;fontFamily=Helvetica;html=1;" parent="L653W54Cs_ECwklM5z4t-1" vertex="1">
          <mxGeometry x="160" y="250" width="260" height="100" as="geometry" />
        </mxCell>
        <mxCell id="awvlsd7Ns9hiUBcwGc_0-0" value="&lt;p style=&quot;margin: 0px ; margin-top: 4px ; text-align: center&quot;&gt;&lt;i&gt;&amp;lt;&amp;lt;Interface&amp;gt;&amp;gt;&lt;/i&gt;&lt;br&gt;&lt;b&gt;IHandle&lt;/b&gt;&lt;/p&gt;&lt;hr size=&quot;1&quot;&gt;&lt;p style=&quot;margin: 0px ; margin-left: 4px&quot;&gt;&lt;br&gt;&lt;/p&gt;&lt;hr size=&quot;1&quot;&gt;&lt;p style=&quot;margin: 0px ; margin-left: 4px&quot;&gt;+ ProcessData(takeData):&amp;nbsp;&lt;span style=&quot;text-align: center&quot;&gt;BaseTakeData&lt;/span&gt;&lt;br&gt;&lt;br&gt;&lt;/p&gt;" style="verticalAlign=top;align=left;overflow=fill;fontSize=12;fontFamily=Helvetica;html=1;" parent="L653W54Cs_ECwklM5z4t-1" vertex="1">
          <mxGeometry x="510" y="250" width="210" height="110" as="geometry" />
        </mxCell>
      </root>
    </mxGraphModel>
  </diagram>
  <diagram id="OKzi4vsoWCi3JhUzVFmT" name="缓存解析数据模块">
    <mxGraphModel dx="1123" dy="608" grid="1" gridSize="10" guides="1" tooltips="1" connect="1" arrows="1" fold="1" page="1" pageScale="1" pageWidth="827" pageHeight="1169" math="0" shadow="0">
      <root>
        <mxCell id="MvV2scIbVz1_OvQl28Mg-0" />
        <mxCell id="MvV2scIbVz1_OvQl28Mg-1" parent="MvV2scIbVz1_OvQl28Mg-0" />
        <mxCell id="xqIEulJY3ITDegefjjEV-0" value="1、MatchEntityManager" style="strokeWidth=2;html=1;shape=mxgraph.flowchart.document2;whiteSpace=wrap;size=0.25;align=left;" parent="MvV2scIbVz1_OvQl28Mg-1" vertex="1">
          <mxGeometry x="30" y="80" width="140" height="60" as="geometry" />
        </mxCell>
        <mxCell id="Mm9S2sDkC6Xtxk7Sz2rf-1" value="MatchEntityManager" style="swimlane;fontStyle=1;align=center;verticalAlign=top;childLayout=stackLayout;horizontal=1;startSize=26;horizontalStack=0;resizeParent=1;resizeParentMax=0;resizeLast=0;collapsible=1;marginBottom=0;" parent="MvV2scIbVz1_OvQl28Mg-1" vertex="1">
          <mxGeometry x="100" y="200" width="280" height="164" as="geometry" />
        </mxCell>
        <mxCell id="Mm9S2sDkC6Xtxk7Sz2rf-2" value="+ MatchDic: ConcurrentDictionary&lt;string, MatchEntityBase&gt;" style="text;strokeColor=none;fillColor=none;align=left;verticalAlign=top;spacingLeft=4;spacingRight=4;overflow=hidden;rotatable=0;points=[[0,0.5],[1,0.5]];portConstraint=eastwest;" parent="Mm9S2sDkC6Xtxk7Sz2rf-1" vertex="1">
          <mxGeometry y="26" width="280" height="26" as="geometry" />
        </mxCell>
        <mxCell id="Mm9S2sDkC6Xtxk7Sz2rf-13" value="- Communicator: ICommunicator" style="text;strokeColor=none;fillColor=none;align=left;verticalAlign=top;spacingLeft=4;spacingRight=4;overflow=hidden;rotatable=0;points=[[0,0.5],[1,0.5]];portConstraint=eastwest;" parent="Mm9S2sDkC6Xtxk7Sz2rf-1" vertex="1">
          <mxGeometry y="52" width="280" height="26" as="geometry" />
        </mxCell>
        <mxCell id="Mm9S2sDkC6Xtxk7Sz2rf-3" value="" style="line;strokeWidth=1;fillColor=none;align=left;verticalAlign=middle;spacingTop=-1;spacingLeft=3;spacingRight=3;rotatable=0;labelPosition=right;points=[];portConstraint=eastwest;" parent="Mm9S2sDkC6Xtxk7Sz2rf-1" vertex="1">
          <mxGeometry y="78" width="280" height="8" as="geometry" />
        </mxCell>
        <mxCell id="Mm9S2sDkC6Xtxk7Sz2rf-4" value="+ GetOrAdd(MatchEntityBase): MatchEntityBase" style="text;strokeColor=none;fillColor=none;align=left;verticalAlign=top;spacingLeft=4;spacingRight=4;overflow=hidden;rotatable=0;points=[[0,0.5],[1,0.5]];portConstraint=eastwest;" parent="Mm9S2sDkC6Xtxk7Sz2rf-1" vertex="1">
          <mxGeometry y="86" width="280" height="26" as="geometry" />
        </mxCell>
        <mxCell id="Mm9S2sDkC6Xtxk7Sz2rf-14" value="+ Get(srcID): MatchEntityBase" style="text;strokeColor=none;fillColor=none;align=left;verticalAlign=top;spacingLeft=4;spacingRight=4;overflow=hidden;rotatable=0;points=[[0,0.5],[1,0.5]];portConstraint=eastwest;" parent="Mm9S2sDkC6Xtxk7Sz2rf-1" vertex="1">
          <mxGeometry y="112" width="280" height="26" as="geometry" />
        </mxCell>
        <mxCell id="Mm9S2sDkC6Xtxk7Sz2rf-15" value="+ Remove(SrcID): void" style="text;strokeColor=none;fillColor=none;align=left;verticalAlign=top;spacingLeft=4;spacingRight=4;overflow=hidden;rotatable=0;points=[[0,0.5],[1,0.5]];portConstraint=eastwest;" parent="Mm9S2sDkC6Xtxk7Sz2rf-1" vertex="1">
          <mxGeometry y="138" width="280" height="26" as="geometry" />
        </mxCell>
        <mxCell id="Mm9S2sDkC6Xtxk7Sz2rf-5" value="MatchEntityBase" style="swimlane;fontStyle=1;align=center;verticalAlign=top;childLayout=stackLayout;horizontal=1;startSize=26;horizontalStack=0;resizeParent=1;resizeParentMax=0;resizeLast=0;collapsible=1;marginBottom=0;" parent="MvV2scIbVz1_OvQl28Mg-1" vertex="1">
          <mxGeometry x="480" y="200" width="160" height="190" as="geometry" />
        </mxCell>
        <mxCell id="Mm9S2sDkC6Xtxk7Sz2rf-6" value="+ SrcID: string" style="text;strokeColor=none;fillColor=none;align=left;verticalAlign=top;spacingLeft=4;spacingRight=4;overflow=hidden;rotatable=0;points=[[0,0.5],[1,0.5]];portConstraint=eastwest;" parent="Mm9S2sDkC6Xtxk7Sz2rf-5" vertex="1">
          <mxGeometry y="26" width="160" height="26" as="geometry" />
        </mxCell>
        <mxCell id="Mm9S2sDkC6Xtxk7Sz2rf-17" value="+ SrcLeague: string" style="text;strokeColor=none;fillColor=none;align=left;verticalAlign=top;spacingLeft=4;spacingRight=4;overflow=hidden;rotatable=0;points=[[0,0.5],[1,0.5]];portConstraint=eastwest;" parent="Mm9S2sDkC6Xtxk7Sz2rf-5" vertex="1">
          <mxGeometry y="52" width="160" height="26" as="geometry" />
        </mxCell>
        <mxCell id="Mm9S2sDkC6Xtxk7Sz2rf-9" value="+ SrcHome: string" style="text;strokeColor=none;fillColor=none;align=left;verticalAlign=top;spacingLeft=4;spacingRight=4;overflow=hidden;rotatable=0;points=[[0,0.5],[1,0.5]];portConstraint=eastwest;" parent="Mm9S2sDkC6Xtxk7Sz2rf-5" vertex="1">
          <mxGeometry y="78" width="160" height="26" as="geometry" />
        </mxCell>
        <mxCell id="Mm9S2sDkC6Xtxk7Sz2rf-10" value="+ SrcAway: string" style="text;strokeColor=none;fillColor=none;align=left;verticalAlign=top;spacingLeft=4;spacingRight=4;overflow=hidden;rotatable=0;points=[[0,0.5],[1,0.5]];portConstraint=eastwest;" parent="Mm9S2sDkC6Xtxk7Sz2rf-5" vertex="1">
          <mxGeometry y="104" width="160" height="26" as="geometry" />
        </mxCell>
        <mxCell id="Mm9S2sDkC6Xtxk7Sz2rf-11" value="+ SrcSportID: string" style="text;strokeColor=none;fillColor=none;align=left;verticalAlign=top;spacingLeft=4;spacingRight=4;overflow=hidden;rotatable=0;points=[[0,0.5],[1,0.5]];portConstraint=eastwest;" parent="Mm9S2sDkC6Xtxk7Sz2rf-5" vertex="1">
          <mxGeometry y="130" width="160" height="26" as="geometry" />
        </mxCell>
        <mxCell id="Mm9S2sDkC6Xtxk7Sz2rf-12" value="+ SrcMatchDate: DateTime" style="text;strokeColor=none;fillColor=none;align=left;verticalAlign=top;spacingLeft=4;spacingRight=4;overflow=hidden;rotatable=0;points=[[0,0.5],[1,0.5]];portConstraint=eastwest;" parent="Mm9S2sDkC6Xtxk7Sz2rf-5" vertex="1">
          <mxGeometry y="156" width="160" height="26" as="geometry" />
        </mxCell>
        <mxCell id="Mm9S2sDkC6Xtxk7Sz2rf-7" value="" style="line;strokeWidth=1;fillColor=none;align=left;verticalAlign=middle;spacingTop=-1;spacingLeft=3;spacingRight=3;rotatable=0;labelPosition=right;points=[];portConstraint=eastwest;" parent="Mm9S2sDkC6Xtxk7Sz2rf-5" vertex="1">
          <mxGeometry y="182" width="160" height="8" as="geometry" />
        </mxCell>
      </root>
    </mxGraphModel>
  </diagram>
</mxfile>
